<?xml version="1.0" standalone="no"?>
<!DOCTYPE svg PUBLIC "-//W3C//DTD SVG 1.1//EN" "http://www.w3.org/Graphics/SVG/1.1/DTD/svg11.dtd">
<svg xmlns="http://www.w3.org/2000/svg">
<defs >
<font id="Outfit" horiz-adv-x="559" ><font-face
    font-family="Outfit Thin ExtraBold"
    units-per-em="1000"
    panose-1="0 0 0 0 0 0 0 0 0 0"
    ascent="1000"
    descent="-260"
    alphabetic="0" />
<glyph unicode=" " horiz-adv-x="185" />
<glyph unicode="!" horiz-adv-x="297" d="M83 270L53 729H243L213 270H83ZM148 -11Q105 -11 77 18T48 90Q48 133 76 162T148 191Q191 191 219 162T247 90Q247 47 219 18T148 -11Z" />
<glyph unicode="&quot;" horiz-adv-x="471" d="M291 417L262 729H423L393 417H291ZM78 417L48 729H210L180 417H78Z" />
<glyph unicode="#" horiz-adv-x="673" d="M318 0L439 709H579L458 0H318ZM31 197V317H607V197H31ZM88 0L209 709H348L228 0H88ZM66 407V526H642V407H66Z" />
<glyph unicode="$" horiz-adv-x="613" d="M293 -11Q208 -11 145 16T29 101L139 214Q175 176 215 155T306 134Q350 134 374 149T398 193Q398 218 380 234T334 263T271 287T202 315T139 356T93 416T75 505Q75 573 106 621T194 695T325 721Q399 721 462 695T566 623L455
510Q424 543 392 559T323 575Q287 575 266 563T245 524Q245 500 262 485T309 459T372 435T441 407T504 366T551 303T569 211Q569 105 497 47T293 -11ZM251 -101V811H376V-101H251Z" />
<glyph unicode="%" horiz-adv-x="698" d="M180 419Q139 419 105 439T50 493T30 570Q30 612 50 645T104 699T180 719Q223 719 257 699T312 646T332 570Q332 528 312 494T257 439T180 419ZM180 532Q197 532 207 542T217 569Q217 585 207 595T180 606Q165 606 155
596T145 569Q145 553 155 543T180 532ZM517 -10Q475 -10 441 10T386 64T366 141Q366 183 386 216T440 270T516 290Q559 290 593 270T648 217T668 141Q668 99 648 65T594 10T517 -10ZM517 104Q533 104 543 114T554 140Q554 156 544 166T517 177Q501 177 491 167T481
140Q481 124 491 114T517 104ZM67 0L477 709H631L221 0H67Z" />
<glyph unicode="&amp;" horiz-adv-x="701" d="M499 0L179 353Q142 395 126 433T109 516Q109 570 137 616T214 692T328 721Q379 721 418 707T486 670T528 625L415 514Q396 540 376 551T332 562Q306 562 289 547T272 511Q272 494 280 480T302 448L702 0H499ZM272
-11Q200 -11 147 18T64 96T34 207Q34 274 68 326T175 412L248 296Q221 286 208 266T195 220Q195 200 204 183T232 156T275 146Q300 146 320 157T357 194L477 76Q461 56 431 36T360 3T272 -11Z" />
<glyph unicode="&apos;" horiz-adv-x="254" d="M76 417L46 729H208L178 417H76Z" />
<glyph unicode="(" horiz-adv-x="315" d="M210 -132Q152 -81 111 -12T49 140T27 314Q27 405 48 487T111 639T210 759L304 667Q241 603 209 515T176 314Q176 202 208 113T304 -39L210 -132Z" />
<glyph unicode=")" horiz-adv-x="315" d="M105 -132L11 -39Q74 24 106 113T139 314Q139 427 107 515T11 667L105 759Q164 709 204 640T266 488T288 314Q288 223 267 140T205 -12T105 -132Z" />
<glyph unicode="*" horiz-adv-x="489" d="M207 301L208 457L88 367L26 487L168 533L50 619L145 715L228 595L274 739L394 677L304 554L457 555L435 421L292 471L341 324L207 301Z" />
<glyph unicode="+" horiz-adv-x="571" d="M47 264V405H524V264H47ZM214 586H358V85H214V586Z" />
<glyph unicode="," horiz-adv-x="287" d="M50 -122L125 19L175 33Q167 17 156 7T131 -4Q100 -4 74 22T47 88Q47 131 75 161T148 191Q188 191 218 161T248 88Q248 71 242 48T215 -12L131 -166L50 -122Z" />
<glyph unicode="-" horiz-adv-x="463" d="M51 181V330H412V181H51Z" />
<glyph unicode="." horiz-adv-x="304" d="M153 -11Q109 -11 81 18T53 90Q53 133 81 162T153 191Q196 191 224 162T252 90Q252 47 224 18T153 -11Z" />
<glyph unicode="/" horiz-adv-x="376" d="M0 -62L228 763H376L148 -62H0Z" />
<glyph unicode="0" horiz-adv-x="671" d="M337 -11Q248 -11 178 35T68 165T27 356Q27 463 67 545T176 674T334 721Q424 721 494 675T604 546T644 354Q644 246 604 164T495 35T337 -11ZM335 143Q376 143 405 167T449 239T465 355Q465 423 450 470T405 541T334 566Q295
566 266 542T222 471T206 356Q206 287 221 240T266 168T335 143Z" />
<glyph unicode="1" horiz-adv-x="390" d="M151 0V709H328V0H151ZM16 560V709H318V560H16Z" />
<glyph unicode="2" horiz-adv-x="576" d="M22 97L300 380Q320 402 333 419T351 452T357 485Q357 523 333 545T268 567Q230 567 199 546T135 474L18 578Q61 648 128 684T282 721Q359 721 415 693T501 614T532 492Q532 450 521 415T486 345T422 272L238 93L22 97ZM22
0V97L171 149H547V0H22Z" />
<glyph unicode="3" horiz-adv-x="569" d="M256 -11Q181 -11 118 14T11 87L125 199Q143 173 178 157T253 140Q286 140 311 151T351 184T366 236Q366 266 351 287T309 320T243 331Q223 331 202 329T167 321L245 419Q277 427 303 432T351 438Q405 438 448 413T516
341T541 231Q541 159 506 105T407 20T256 -11ZM167 321V419L332 612H526L356 419L167 321ZM60 560V709H526V612L391 560H60Z" />
<glyph unicode="4" horiz-adv-x="613" d="M18 243L240 709H432L204 243H18ZM18 145V243L70 294H594V145H18ZM351 0V427H526V0H351Z" />
<glyph unicode="5" horiz-adv-x="568" d="M257 -11Q184 -11 118 14T8 87L122 199Q140 173 175 157T250 140Q285 140 310 152T350 187T365 241Q365 272 351 295T309 331T244 344Q210 344 182 335T130 308L147 422Q174 438 195 449T239 465T295 470Q376 470 430
438T513 352T541 234Q541 162 506 107T408 20T257 -11ZM130 308L60 372L95 709H255L218 383L130 308ZM117 560L95 709H502V560H117Z" />
<glyph unicode="6" horiz-adv-x="579" d="M289 -11Q213 -11 153 21T57 110T21 237Q21 324 81 412L284 709H484L253 390L187 396Q202 420 217 437T256 465T317 475Q384 475 438 444T525 359T558 238Q558 167 523 111T427 22T289 -11ZM289 140Q318 140 340 153T374
189T387 242Q387 271 375 294T340 331T289 344Q261 344 239 331T205 294T192 242Q192 213 204 190T239 153T289 140Z" />
<glyph unicode="7" horiz-adv-x="530" d="M108 0L340 611H513L291 0H108ZM16 560V709H513V611L459 560H16Z" />
<glyph unicode="8" horiz-adv-x="569" d="M285 -11Q206 -11 148 16T57 90T25 198Q25 249 44 290T99 357T181 393L178 360Q138 368 110 392T67 452T52 526Q52 583 81 627T163 696T285 721Q354 721 406 696T487 627T517 526Q517 488 502 453T459 393T391 360L387
393Q434 384 469 358T524 290T544 198Q544 137 512 90T422 16T285 -11ZM285 138Q311 138 331 149T363 179T375 224Q375 249 364 268T332 298T285 310Q258 310 238 299T206 268T194 224Q194 199 206 180T238 149T285 138ZM285 437Q315 437 334 456T354 505Q354 536
335 556T285 576Q254 576 235 557T215 507Q215 477 234 457T285 437Z" />
<glyph unicode="9" horiz-adv-x="579" d="M95 0L326 319L392 314Q377 289 362 272T323 244T262 234Q195 234 141 265T53 351T20 472Q20 542 56 598T153 688T289 721Q366 721 426 688T522 599T558 473Q558 386 498 297L295 0H95ZM289 366Q318 366 340 379T374 415T387
467Q387 497 375 520T340 556T289 569Q261 569 239 556T205 520T192 467Q192 438 204 415T239 379T289 366Z" />
<glyph unicode=":" horiz-adv-x="300" d="M150 -11Q107 -11 79 18T50 89Q50 133 78 162T150 191Q193 191 221 162T249 89Q249 47 221 18T150 -11ZM150 278Q107 278 79 307T50 379Q50 422 78 451T150 481Q193 481 221 452T249 379Q249 337 221 308T150 278Z" />
<glyph unicode=";" horiz-adv-x="286" d="M48 -122L123 19L173 33Q165 17 154 7T129 -4Q97 -4 71 22T45 88Q45 130 73 160T145 191Q186 191 216 161T246 88Q246 71 240 48T213 -12L129 -166L48 -122ZM145 278Q102 278 74 307T45 379Q45 422 73 451T145 481Q188
481 216 452T244 379Q244 337 216 308T145 278Z" />
<glyph unicode="&lt;" horiz-adv-x="575" d="M524 80L44 276V394L524 590V438L167 300V370L524 232V80Z" />
<glyph unicode="=" horiz-adv-x="571" d="M47 383V523H524V383H47ZM47 138V278H524V138H47Z" />
<glyph unicode="&gt;" horiz-adv-x="575" d="M51 438V590L531 394V276L51 80V232L408 370V300L51 438Z" />
<glyph unicode="?" horiz-adv-x="496" d="M192 267L181 457H231Q252 457 268 464T292 486T301 518Q301 537 293 550T270 571T235 578Q201 578 172 557T124 505L17 609Q47 666 104 703T243 741Q309 741 360 713T439 637T468 531Q468 469 444 427T379 360T290 324L334
388L326 267H192ZM259 -11Q216 -11 188 18T159 90Q159 133 187 162T259 191Q302 191 330 162T358 90Q358 47 330 18T259 -11Z" />
<glyph unicode="@" horiz-adv-x="766" d="M366 72Q329 72 296 92T242 146T221 224Q221 268 241 303T295 359T366 380Q414 380 442 359T470 286V164Q470 113 443 93T366 72ZM375 173Q398 173 410 188T423 225Q423 247 410 261T375 276Q353 276 340 261T327 225Q327
203 340 188T375 173ZM439 75V156L451 228L439 300V372H541V75H439ZM535 45L616 -37Q570 -78 511 -98T388 -119Q313 -119 250 -93T138 -21T63 88T36 224Q36 297 63 359T139 469T253 542T394 568Q493 568 568 526T686 409T729 234Q729 184 720 145T689 75H562Q578
94 588 119T604 173T609 235Q609 308 583 356T510 428T397 453Q330 453 277 426T193 348T163 223Q163 152 192 101T271 23T386 -4Q432 -4 468 8T535 45ZM492 169H689V75H492V169Z" />
<glyph unicode="A" horiz-adv-x="742" d="M11 0L286 709H459L731 0H544L339 596H404L194 0H11ZM178 124V266H569V124H178Z" />
<glyph unicode="B" horiz-adv-x="650" d="M205 0V133H353Q395 133 419 156T444 218Q444 243 433 262T402 292T353 303H205V432H342Q377 432 399 449T422 504Q422 541 400 558T342 576H205V709H385Q451 709 499 684T574 617T600 522Q600 451 552 405T411 347V407Q513
395 567 342T621 207Q621 147 591 101T507 27T378 0H205ZM63 0V709H239V0H63Z" />
<glyph unicode="C" horiz-adv-x="692" d="M407 -11Q326 -11 257 16T137 93T57 210T28 355Q28 434 56 500T136 616T256 693T405 721Q489 721 556 695T674 621L554 501Q529 529 492 545T405 561Q362 561 327 547T265 506T225 440T210 355Q210 308 224 270T265 205T326
163T405 148Q455 148 493 163T558 208L678 88Q626 41 561 15T407 -11Z" />
<glyph unicode="D" horiz-adv-x="761" d="M184 0V154H354Q414 154 458 177T527 245T551 356Q551 420 527 464T458 532T354 555H176V709H355Q437 709 506 684T626 611T705 499T734 355Q734 275 706 210T626 98T507 26T357 0H184ZM63 0V709H242V0H63Z" />
<glyph unicode="E" horiz-adv-x="627" d="M63 0V709H242V0H63ZM205 0V151H589V0H205ZM205 288V435H553V288H205ZM205 558V709H583V558H205Z" />
<glyph unicode="F" horiz-adv-x="602" d="M63 0V709H242V0H63ZM205 265V416H556V265H205ZM205 558V709H572V558H205Z" />
<glyph unicode="G" horiz-adv-x="791" d="M406 -11Q325 -11 257 16T137 94T57 210T28 355Q28 434 57 500T140 616T263 693T414 721Q509 721 586 688T711 595L591 475Q555 518 512 539T412 561Q354 561 309 536T236 464T209 356Q209 294 234 247T304 174T407 148Q465
148 505 170T567 234T589 334L710 256L387 264V410H769V383Q769 256 723 168T596 35T406 -11Z" />
<glyph unicode="H" horiz-adv-x="739" d="M63 0V709H242V0H63ZM497 0V709H676V0H497ZM165 288V438H562V288H165Z" />
<glyph unicode="I" horiz-adv-x="305" d="M63 0V709H242V0H63Z" />
<glyph unicode="J" horiz-adv-x="550" d="M219 -11Q149 -11 99 13T10 83L126 198Q144 173 168 161T224 148Q251 148 272 159T306 193T319 251V709H498V259Q498 175 465 115T369 22T219 -11Z" />
<glyph unicode="K" horiz-adv-x="721" d="M493 0L225 370L482 709H700L407 341L406 404L711 0H493ZM63 0V709H242V0H63Z" />
<glyph unicode="L" horiz-adv-x="567" d="M63 0V709H242V0H63ZM205 0V154H547V0H205Z" />
<glyph unicode="M" horiz-adv-x="866" d="M63 0V709H192L464 298H403L674 709H803V0H626V413L654 405L491 160H375L213 405L241 413V0H63Z" />
<glyph unicode="N" horiz-adv-x="748" d="M63 0V709H188L242 564V0H63ZM552 0L138 526L188 709L603 183L552 0ZM552 0L506 149V709H685V0H552Z" />
<glyph unicode="O" horiz-adv-x="812" d="M408 -13Q326 -13 257 15T137 93T56 210T27 356Q27 434 55 500T135 617T255 694T406 722Q488 722 557 695T677 617T756 500T785 355Q785 277 757 210T677 93T558 15T408 -13ZM406 147Q466 147 510 173T578 246T602 356Q602
402 589 440T549 505T487 548T406 563Q346 563 302 538T234 465T210 356Q210 308 223 270T263 204T325 162T406 147Z" />
<glyph unicode="P" horiz-adv-x="640" d="M205 254V387H345Q371 387 392 397T427 429T440 481Q440 512 427 533T393 565T345 576H205V709H376Q444 709 499 682T586 604T618 481Q618 411 586 360T499 281T376 254H205ZM63 0V709H242V0H63Z" />
<glyph unicode="Q" horiz-adv-x="819" d="M408 -13Q326 -13 257 15T137 93T57 210T28 356Q28 434 56 500T135 617T255 694T406 722Q488 722 557 695T677 617T756 500T785 355Q785 277 757 210T677 93T558 15T408 -13ZM406 147Q466 147 510 173T578 246T602 356Q602
402 589 440T549 505T487 548T406 563Q347 563 303 538T234 465T210 356Q210 308 224 270T263 204T325 162T406 147ZM720 -61L382 277L482 376L819 39L720 -61Z" />
<glyph unicode="R" horiz-adv-x="663" d="M205 287V415H340Q384 415 407 436T431 495Q431 531 408 553T340 576H205V709H365Q437 709 491 682T577 608T608 498Q608 435 577 388T489 314T358 287H205ZM63 0V709H242V0H63ZM447 0L241 304L402 343L654 0H447Z" />
<glyph unicode="S" horiz-adv-x="596" d="M285 -11Q196 -11 131 16T11 101L124 215Q161 176 203 156T298 135Q343 135 367 150T392 193Q392 218 374 234T327 263T262 287T191 315T126 356T78 416T60 505Q60 573 92 621T183 695T318 721Q395 721 460 695T567 623L453
510Q421 542 388 558T316 574Q279 574 258 561T237 524Q237 500 255 485T302 459T367 435T438 407T502 366T550 303T568 211Q568 105 494 47T285 -11Z" />
<glyph unicode="T" horiz-adv-x="649" d="M235 0V704H414V0H235ZM18 555V709H631V555H18Z" />
<glyph unicode="U" horiz-adv-x="708" d="M355 -11Q265 -11 197 26T90 131T52 283V709H230V270Q230 232 246 205T291 163T355 148Q391 148 418 162T461 204T477 269V709H657V282Q657 197 619 131T514 27T355 -11Z" />
<glyph unicode="V" horiz-adv-x="722" d="M278 0L11 709H202L402 136H320L523 709H710L440 0H278Z" />
<glyph unicode="W" horiz-adv-x="1012" d="M238 0L13 709H190L352 163H275L435 709H578L738 163H662L824 709H1000L774 0H630L470 545H542L383 0H238Z" />
<glyph unicode="X" horiz-adv-x="724" d="M503 0L311 316H293L23 709H236L424 411H442L713 0H503ZM11 0L269 379L410 312L215 0H11ZM446 332L305 400L496 709H700L446 332Z" />
<glyph unicode="Y" horiz-adv-x="694" d="M280 254L9 709H214L421 340H277L484 709H685L412 254H280ZM259 0V327H438V0H259Z" />
<glyph unicode="Z" horiz-adv-x="617" d="M28 124L370 585H586L244 124H28ZM28 0V124L135 150H578V0H28ZM46 559V709H586V585L478 559H46Z" />
<glyph unicode="[" horiz-adv-x="352" d="M61 -96V729H200V-96H61ZM130 -96V29H321V-96H130ZM130 605V729H321V605H130Z" />
<glyph unicode="\" horiz-adv-x="376" d="M228 -62L0 763H148L376 -62H228Z" />
<glyph unicode="]" horiz-adv-x="352" d="M153 -96V729H291V-96H153ZM31 -96V29H222V-96H31ZM31 605V729H222V605H31Z" />
<glyph unicode="^" horiz-adv-x="474" d="M314 450L206 660H269L159 450H28L185 729H289L446 450H314Z" />
<glyph unicode="_" horiz-adv-x="517" d="M0 -171V-39H517V-171H0Z" />
<glyph unicode="`" horiz-adv-x="338" d="M248 514L40 606L124 741L298 599L248 514Z" />
<glyph unicode="a" horiz-adv-x="603" d="M255 -10Q187 -10 134 23T51 113T21 244Q21 318 51 376T134 466T255 499Q301 499 339 483T401 436T431 368V122Q426 83 402 54T339 7T255 -10ZM292 145Q335 145 361 173T388 245Q388 274 376 296T343 331T293 344Q265
344 244 331T210 296T197 245Q197 216 209 194T243 158T292 145ZM381 0V131L406 251L381 369V489H552V0H381Z" />
<glyph unicode="b" horiz-adv-x="603" d="M342 -10Q295 -10 255 8T189 59T157 129V368Q163 406 189 436T256 482T342 499Q413 499 467 467T551 376T582 244Q582 171 552 114T467 23T342 -10ZM311 145Q339 145 360 158T394 193T406 245Q406 273 394 295T360 331T310
344Q282 344 261 331T227 296T215 245Q215 215 227 193T261 158T311 145ZM51 0V729H225V369L196 251L221 131V0H51Z" />
<glyph unicode="c" horiz-adv-x="501" d="M293 -11Q215 -11 153 22T54 113T18 244Q18 318 54 376T153 467T295 501Q352 501 399 482T485 425L375 315Q360 330 341 337T295 345Q267 345 245 333T209 298T195 245Q195 215 208 193T244 157T295 144Q323 144 343 153T378
179L489 69Q448 29 401 9T293 -11Z" />
<glyph unicode="d" horiz-adv-x="603" d="M261 -10Q190 -10 136 23T52 113T21 244Q21 318 51 376T135 466T261 499Q307 499 347 483T414 436T446 368V129Q441 91 414 59T347 9T261 -10ZM292 145Q321 145 342 157T375 192T388 245Q388 274 376 296T343 331T293
344Q265 344 244 331T210 296T197 245Q197 216 209 194T243 158T292 145ZM552 0H381V131L406 251L378 369V729H552V0Z" />
<glyph unicode="e" horiz-adv-x="554" d="M298 -11Q216 -11 153 21T54 112T18 245Q18 319 53 376T148 467T285 501Q359 501 416 470T506 383T539 256Q539 241 538 226T531 190L100 188V300L462 303L384 254Q383 295 372 321T340 362T287 376Q254 376 230 360T193
315T180 245Q180 203 194 174T234 129T298 114Q334 114 361 126T411 163L502 72Q466 31 415 10T298 -11Z" />
<glyph unicode="f" horiz-adv-x="452" d="M111 0V520Q111 582 138 631T215 711T337 741Q390 741 430 724T499 677L390 568Q382 577 371 581T344 586Q317 586 301 570T285 527V0H111ZM7 344V489H423V344H7Z" />
<glyph unicode="g" horiz-adv-x="588" d="M259 -222Q178 -222 116 -195T18 -117L123 -13Q148 -40 178 -55T251 -71Q303 -71 333 -46T364 28V155L392 261L367 366V489H538V34Q538 -44 502 -101T402 -190T259 -222ZM251 18Q183 18 131 49T48 136T18 259Q18 327 48
381T130 467T251 499Q297 499 335 483T398 437T428 368V149Q422 110 398 81T335 35T251 18ZM283 169Q311 169 331 181T363 214T374 259Q374 284 363 304T332 336T284 349Q257 349 237 337T205 304T194 259Q194 236 205 216T236 182T283 169Z" />
<glyph unicode="h" horiz-adv-x="583" d="M368 0V276Q368 310 348 329T297 349Q276 349 260 340T234 315T225 276L157 308Q157 367 181 409T249 475T349 499Q408 499 451 476T518 411T542 316V0H368ZM51 0V729H225V0H51Z" />
<glyph unicode="i" horiz-adv-x="275" d="M50 0V489H225V0H50ZM137 546Q98 546 72 572T46 639Q46 678 72 705T137 732Q178 732 203 705T229 639Q229 599 204 573T137 546Z" />
<glyph unicode="j" horiz-adv-x="288" d="M32 -222Q-22 -222 -61 -204T-129 -154L-22 -47Q-12 -58 -2 -62T20 -67Q40 -67 52 -56T64 -20V489H238V-17Q238 -78 212 -124T140 -196T32 -222ZM151 546Q112 546 86 572T60 639Q60 678 86 705T151 732Q192 732 217 705T243
639Q243 599 218 573T151 546Z" />
<glyph unicode="k" horiz-adv-x="563" d="M365 0L211 256L364 489H555L365 226L370 290L565 0H365ZM51 0V729H225V0H51Z" />
<glyph unicode="l" horiz-adv-x="276" d="M51 0V729H225V0H51Z" />
<glyph unicode="m" horiz-adv-x="879" d="M51 0V489H225V0H51ZM358 0V283Q358 314 339 331T292 349Q272 349 257 341T234 319T225 283L157 310Q157 369 183 411T253 476T353 499Q403 499 443 476T508 410T532 311V0H358ZM665 0V283Q665 314 646 331T599 349Q580
349 565 341T541 319T532 283L430 288Q432 354 459 401T533 473T641 499Q698 499 743 475T813 406T839 297V0H665Z" />
<glyph unicode="n" horiz-adv-x="583" d="M368 0V276Q368 310 348 329T297 349Q276 349 260 340T234 315T225 276L157 308Q157 367 183 409T254 475T358 499Q411 499 452 475T518 409T542 316V0H368ZM51 0V489H225V0H51Z" />
<glyph unicode="o" horiz-adv-x="582" d="M292 -11Q213 -11 152 22T54 114T18 246Q18 319 53 376T151 467T291 501Q369 501 430 468T528 377T564 246Q564 173 529 115T432 23T292 -11ZM291 144Q320 144 341 156T375 192T387 245Q387 275 375 297T341 332T291 345Q263
345 241 332T207 297T195 244Q195 215 207 192T241 157T291 144Z" />
<glyph unicode="p" horiz-adv-x="603" d="M342 -10Q295 -10 255 7T189 53T157 122V360Q163 399 189 430T255 480T342 499Q413 499 467 467T551 376T582 244Q582 171 552 114T467 23T342 -10ZM309 145Q338 145 360 158T394 193T406 245Q406 274 394 296T360 331T310
344Q283 344 261 332T227 297T215 245Q215 216 227 194T260 158T309 145ZM51 -207V489H225V366L196 248L221 129V-207H51Z" />
<glyph unicode="q" horiz-adv-x="603" d="M255 -10Q187 -10 134 23T51 113T21 244Q21 318 51 376T134 466T255 499Q301 499 339 483T401 436T431 368V122Q426 83 402 54T339 7T255 -10ZM292 145Q335 145 361 173T388 245Q388 274 376 296T343 331T293 344Q265
344 244 331T210 296T197 245Q197 216 209 194T243 158T292 145ZM381 -207V129L406 248L381 366V489H552V-207H381Z" />
<glyph unicode="r" horiz-adv-x="453" d="M51 0V489H225V0H51ZM225 266L147 332Q176 415 224 457T349 499Q384 499 409 490T453 462L352 327Q344 336 330 341T297 347Q263 347 244 327T225 266Z" />
<glyph unicode="s" horiz-adv-x="471" d="M237 -14Q192 -14 149 -2T68 30T4 78L99 175Q123 150 156 136T228 122Q250 122 261 128T273 145Q273 161 257 169T214 184T158 200T102 226T59 271T42 345Q42 392 67 427T139 483T247 504Q310 504 367 483T459 418L363
321Q339 348 310 358T257 369Q234 369 224 363T214 345Q214 332 230 324T273 310T328 293T383 266T426 219T443 144Q443 71 387 29T237 -14Z" />
<glyph unicode="t" horiz-adv-x="410" d="M118 0V691H292V0H118ZM10 344V489H400V344H10Z" />
<glyph unicode="u" horiz-adv-x="550" d="M275 -11Q206 -11 153 16T69 93T38 206V489H212V206Q212 186 220 171T242 148T275 140Q303 140 320 158T338 206V489H512V206Q512 142 482 93T399 17T275 -11Z" />
<glyph unicode="v" horiz-adv-x="550" d="M198 0L-1 489H185L312 77H241L367 489H551L352 1L198 0Z" />
<glyph unicode="w" horiz-adv-x="800" d="M158 0L3 489H171L263 133L213 132L322 489H477L586 132L536 133L629 489H797L642 0H485L381 338H420L313 0H158Z" />
<glyph unicode="x" horiz-adv-x="550" d="M349 0L244 181L204 205L11 489H212L315 313L353 291L549 0H349ZM1 0L202 289L301 182L187 0H1ZM347 205L248 312L353 489H539L347 205Z" />
<glyph unicode="y" horiz-adv-x="541" d="M197 -1L1 489H187L307 86H234L355 489H541L340 0L197 -1ZM81 -207L226 112L340 0L256 -207H81Z" />
<glyph unicode="z" horiz-adv-x="495" d="M22 104L254 385H469L237 104H22ZM22 0V104L135 142H463V0H22ZM39 347V489H469V385L356 347H39Z" />
<glyph unicode="{" horiz-adv-x="349" d="M255 -96Q165 -96 117 -51T78 89L89 205Q92 234 82 245T43 257H15V379H43Q71 379 81 391T89 431L77 544Q68 636 116 682T255 729H318V605H285Q243 605 230 588T219 541L227 448Q231 406 223 377T189 329T113 298V336Q163
326 189 308T223 260T227 189L219 93Q217 62 230 46T285 29H318V-96H255Z" />
<glyph unicode="|" horiz-adv-x="308" d="M76 -130V779H232V-130H76Z" />
<glyph unicode="}" horiz-adv-x="349" d="M87 -96H24V29H57Q99 29 112 45T123 93L115 189Q111 231 119 260T153 307T229 336V298Q179 310 153 329T119 377T115 448L123 541Q126 571 113 588T57 605H24V729H87Q177 729 225 683T265 544L253 431Q250 403 260 391T299
379H327V257H299Q271 257 261 246T253 205L264 89Q274 -5 226 -50T87 -96Z" />
<glyph unicode="~" horiz-adv-x="606" d="M388 260Q355 260 332 268T291 287T256 306T216 315Q189 315 169 304T128 269L40 356Q80 407 121 431T214 456Q245 456 268 448T309 428T345 409T387 400Q413 400 435 410T478 447L566 359Q525 307 483 284T388 260Z" />
<glyph unicode="&#xa0;" horiz-adv-x="185" />
<glyph unicode="&#xa1;" horiz-adv-x="296" d="M53 -207L83 217H213L243 -207H53ZM148 296Q105 296 77 326T48 398Q48 441 76 470T148 499Q192 499 220 470T248 398Q248 356 220 326T148 296Z" />
<glyph unicode="&#xa2;" horiz-adv-x="511" d="M297 99Q219 99 157 132T59 223T23 354Q23 428 59 486T158 577T299 611Q357 611 404 592T489 535L379 425Q364 440 345 447T299 455Q271 455 249 443T213 408T199 355Q199 325 212 303T249 267T299 254Q328 254 348
263T383 289L493 179Q452 139 405 119T297 99ZM222 10V699H347V10H222Z" />
<glyph unicode="&#xa3;" horiz-adv-x="633" d="M148 0V497Q148 567 180 620T267 704T394 734Q460 734 513 708T597 638L486 527Q468 553 451 564T405 576Q381 576 364 566T337 538T327 494V0H148ZM52 0V154H576V0H52ZM52 287V415H497V287H52Z" />
<glyph unicode="&#xa4;" horiz-adv-x="601" d="M301 146Q236 146 185 173T103 247T73 355Q73 415 102 461T183 535T301 562Q367 562 418 535T499 462T528 355Q528 295 499 248T419 174T301 146ZM301 289Q320 289 334 296T357 319T366 354Q366 375 358 389T335
411T301 419Q282 419 268 411T244 388T235 353Q235 334 244 320T267 297T301 289ZM444 410L356 498L467 609L555 521L444 410ZM135 100L46 188L157 300L246 211L135 100ZM356 211L444 300L555 188L467 100L356 211ZM46 521L135 609L246 498L157 410L46 521Z" />
<glyph unicode="&#xa5;" horiz-adv-x="686" d="M276 251L45 709H236L395 333H296L455 709H642L408 251H276ZM255 0V322H434V0H255ZM237 476L262 378H63V476H237ZM63 226V323H623V226H63ZM441 378L476 476H623V378H441Z" />
<glyph unicode="&#xa6;" horiz-adv-x="308" d="M76 397V779H232V397H76ZM76 -130V253H232V-130H76Z" />
<glyph unicode="&#xa7;" horiz-adv-x="550" d="M282 146L275 253Q302 253 318 263T334 292Q334 314 315 326T267 347T204 367T142 397T94 449T75 535Q75 590 101 631T177 696T293 719Q360 719 420 694T517 618L419 517Q394 549 362 563T300 577Q272 577 259 567T246
539Q246 520 264 509T312 489T374 469T436 440T484 391T503 310Q503 262 476 225T399 167T282 146ZM257 -122Q190 -122 130 -96T33 -21L131 80Q156 48 188 35T250 21Q277 21 290 31T304 58Q304 78 286 89T238 109T176 128T114 157T66 207T47 288Q47 336 74 372T151
430T267 452L275 344Q248 344 232 335T216 306Q216 284 235 272T283 251T345 231T408 201T456 149T475 62Q475 8 449 -33T373 -98T257 -122Z" />
<glyph unicode="&#xa8;" horiz-adv-x="513" d="M144 543Q105 543 79 570T53 636Q53 675 79 702T144 729Q184 729 209 702T235 636Q235 597 210 570T144 543ZM369 543Q330 543 304 570T278 636Q278 675 304 702T369 729Q409 729 434 702T460 636Q460 597 435 570T369 543Z" />
<glyph unicode="&#xa9;" horiz-adv-x="804" d="M403 -10Q323 -10 257 18T142 96T67 213T40 358Q40 435 66 501T140 616T255 694T401 722Q481 722 548 694T663 617T738 501T764 356Q764 280 738 213T664 96T549 18T403 -10ZM401 48Q490 48 558 89T665 200T704 358Q704
444 666 513T559 623T401 664Q311 664 243 624T138 514T100 358Q100 270 138 200T244 89T401 48ZM415 150Q352 150 301 177T221 250T191 356Q191 415 221 462T302 535T418 562Q464 562 501 548T571 503L473 405Q463 416 450 421T418 426Q398 426 382 417T357 393T348
357Q348 336 357 320T383 295T418 286Q438 286 452 292T477 312L575 214Q540 180 502 165T415 150Z" />
<glyph unicode="&#xaa;" horiz-adv-x="364" d="M152 408Q111 408 80 428T30 482T11 562Q11 606 29 640T79 695T152 715Q192 715 221 694T257 641V482Q251 451 222 430T152 408ZM177 507Q201 507 215 522T230 562Q230 586 215 601T177 617Q154 617 139 601T124
562Q124 537 139 522T177 507ZM226 414V493L242 565L226 636V709H335V414H226Z" />
<glyph unicode="&#xab;" horiz-adv-x="527" d="M120 67L19 246L120 425H279L173 246L279 67H120ZM350 67L249 246L350 425H509L403 246L509 67H350Z" />
<glyph unicode="&#xac;" horiz-adv-x="571" d="M47 322V462H524V322H47ZM380 435H524V170H380V435Z" />
<glyph unicode="&#xad;" horiz-adv-x="463" d="M51 181V330H412V181H51Z" />
<glyph unicode="&#xae;" horiz-adv-x="540" d="M270 266Q205 266 155 296T75 378T45 494Q45 558 74 609T153 689T269 719Q335 719 386 689T466 608T495 493Q495 430 466 378T387 296T270 266ZM269 314Q322 314 361 337T423 402T446 494Q446 544 424 584T362 647T269
671Q217 671 178 648T117 584T95 494Q95 443 117 402T178 338T269 314ZM236 475V515H279Q292 515 299 521T307 540Q307 550 300 557T279 564H236V605H286Q319 605 340 587T361 540Q361 511 340 493T284 475H236ZM194 387V605H248V387H194ZM312 387L248 480L297
493L375 387H312Z" />
<glyph unicode="&#xaf;" horiz-adv-x="468" d="M40 688H428V563H40V688Z" />
<glyph unicode="&#xb0;" horiz-adv-x="397" d="M199 382Q148 382 110 404T49 464T27 550Q27 598 49 636T109 696T199 719Q250 719 288 697T348 636T370 550Q370 502 348 465T288 405T199 382ZM199 500Q220 500 234 514T248 550Q248 572 234 586T199 600Q178 600
164 586T150 550Q150 529 163 515T199 500Z" />
<glyph unicode="&#xb1;" horiz-adv-x="571" d="M47 342V482H524V342H47ZM214 581H358V245H214V581ZM47 74V215H524V74H47Z" />
<glyph unicode="&#xb2;" horiz-adv-x="339" d="M23 414L171 560Q177 565 179 571T182 583Q182 596 174 604T150 612Q137 612 125 603T96 570L17 643Q40 679 77 697T162 715Q228 715 265 682T303 590Q303 561 291 534T252 483L169 408L23 414ZM23 349V414L126 449H310V349H23Z"
/>
<glyph unicode="&#xb3;" horiz-adv-x="331" d="M145 342Q105 342 71 355T11 391L88 466Q95 456 111 450T143 443Q160 443 172 450T185 473Q185 487 172 495T136 503Q123 503 112 502T96 498L150 564Q172 568 187 570T211 573Q251 573 277 546T304 470Q304 413
261 378T145 342ZM96 498V563L164 644H293L223 564L96 498ZM42 608V709H293V644L205 608H42Z" />
<glyph unicode="&#xb4;" horiz-adv-x="338" d="M90 536L40 622L215 764L298 628L90 536Z" />
<glyph unicode="&#xb5;" horiz-adv-x="602" d="M76 -197V489H251V-197H76ZM355 -10Q267 -10 224 45T180 189L251 210Q251 172 270 156T314 140Q338 140 357 156T376 210V489H550V183Q550 125 524 82T454 15T355 -10Z" />
<glyph unicode="&#xb6;" horiz-adv-x="718" d="M404 254H275Q208 254 153 281T65 359T33 481Q33 553 65 603T152 681T275 709H689V576H283Q258 576 236 566T201 534T188 481Q188 450 201 429T236 398T283 387H404V254ZM438 -100H301V709H438V-100ZM623 -100H486V709H623V-100Z"
/>
<glyph unicode="&#xb7;" horiz-adv-x="199" d="M101 270Q57 270 29 299T1 371Q1 414 29 443T101 472Q144 472 172 443T200 371Q200 328 172 299T101 270Z" />
<glyph unicode="&#xb8;" horiz-adv-x="318" d="M153 -217Q111 -217 83 -208T25 -182L74 -117Q88 -126 103 -131T134 -136Q153 -136 160 -131T168 -116Q168 -107 158 -101T124 -95H102L135 12H225L197 -62L151 -23Q220 -23 256 -49T292 -120Q292 -162 254 -189T153 -217Z" />
<glyph unicode="&#xb9;" horiz-adv-x="265" d="M81 349V709H203V349H81ZM16 608V709H198V608H16Z" />
<glyph unicode="&#xba;" horiz-adv-x="351" d="M176 406Q129 406 91 426T32 481T10 561Q10 605 31 640T90 695T176 715Q224 715 261 695T319 640T341 561Q341 517 320 482T261 427T176 406ZM176 505Q200 505 214 520T228 561Q228 586 214 601T176 616Q152 616
138 601T123 560Q123 536 137 521T176 505Z" />
<glyph unicode="&#xbb;" horiz-adv-x="527" d="M248 67L354 246L248 425H407L508 246L407 67H248ZM18 67L124 246L18 425H177L278 246L177 67H18Z" />
<glyph unicode="&#xbc;" horiz-adv-x="697" d="M281 316L343 256L120 -11L14 95L281 316ZM401 394L339 454L562 722L668 616L401 394ZM123 349V709H246V349H123ZM59 608V709H241V608H59ZM364 119L463 359H585L484 119H364ZM364 55V119L395 155H671V55H364ZM537
-1V205H650V-1H537Z" />
<glyph unicode="&#xbd;" horiz-adv-x="696" d="M273 316L335 256L120 -11L14 95L273 316ZM401 394L339 454L562 722L668 616L401 394ZM123 349V709H246V349H123ZM59 608V709H241V608H59ZM369 64L517 210Q523 215 525 221T528 233Q528 246 520 254T496 262Q483
262 471 253T442 220L363 293Q386 329 424 347T508 365Q574 365 612 332T650 240Q650 211 638 184T599 133L515 58L369 64ZM369 -1V64L472 99H657V-1H369Z" />
<glyph unicode="&#xbe;" horiz-adv-x="693" d="M261 325L323 266L120 -11L14 95L261 325ZM431 385L369 444L564 722L670 616L431 385ZM172 342Q132 342 98 355T38 391L115 466Q122 456 138 450T170 443Q187 443 199 450T212 473Q212 487 199 495T163 503Q150 503
139 502T123 498L177 564Q199 568 214 570T238 573Q278 573 304 546T331 470Q331 413 288 378T172 342ZM123 498V563L191 644H320L250 564L123 498ZM69 608V709H320V644L232 608H69ZM349 119L447 359H570L469 119H349ZM349 55V119L379 155H655V55H349ZM522 -1V205H635V-1H522Z"
/>
<glyph unicode="&#xbf;" horiz-adv-x="491" d="M252 -219Q186 -219 136 -193T57 -122T28 -19Q28 37 53 78T120 146T214 184L162 134L170 221H304L315 64H265Q234 64 215 48T195 3Q195 -15 203 -28T226 -49T260 -56Q294 -56 323 -36T370 17L477 -87Q447 -144 390
-181T252 -219ZM237 296Q195 296 167 326T138 398Q138 441 166 470T237 499Q280 499 308 470T337 398Q337 356 309 326T237 296Z" />
<glyph unicode="&#xc0;" horiz-adv-x="742" d="M11 0L286 709H459L731 0H544L339 596H404L194 0H11ZM178 124V266H569V124H178ZM431 761L223 853L307 989L481 847L431 761Z" />
<glyph unicode="&#xc1;" horiz-adv-x="742" d="M11 0L286 709H459L731 0H544L339 596H404L194 0H11ZM178 124V266H569V124H178ZM292 756L242 842L417 984L500 848L292 756Z" />
<glyph unicode="&#xc2;" horiz-adv-x="742" d="M11 0L286 709H459L731 0H544L339 596H404L194 0H11ZM178 124V266H569V124H178ZM225 752L175 826L326 966H417L568 826L518 752L303 869L440 868L225 752Z" />
<glyph unicode="&#xc3;" horiz-adv-x="742" d="M11 0L286 709H459L731 0H544L339 596H404L194 0H11ZM178 124V266H569V124H178ZM445 758Q413 758 390 769T346 790T304 801Q281 801 265 792T234 761L155 841Q183 889 217 910T297 931Q329 931 352 921T396 899T437
888Q461 888 477 898T507 928L586 849Q558 801 524 780T445 758Z" />
<glyph unicode="&#xc4;" horiz-adv-x="742" d="M11 0L286 709H459L731 0H544L339 596H404L194 0H11ZM178 124V266H569V124H178ZM259 763Q220 763 194 790T168 856Q168 895 194 922T259 949Q299 949 324 922T350 856Q350 817 325 790T259 763ZM484 763Q445 763
419 790T393 856Q393 895 419 922T484 949Q524 949 549 922T575 856Q575 817 550 790T484 763Z" />
<glyph unicode="&#xc5;" horiz-adv-x="742" d="M11 0L286 709H459L731 0H544L339 596H404L194 0H11ZM178 124V266H569V124H178ZM372 658Q333 658 303 676T255 723T237 790Q237 828 254 858T302 905T371 923Q409 923 439 906T487 858T505 791Q505 753 488 723T440
676T372 658ZM372 746Q390 746 402 759T414 791Q414 810 402 822T372 835Q352 835 340 822T328 790Q328 772 340 759T372 746Z" />
<glyph unicode="&#xc6;" horiz-adv-x="1000" d="M11 0L286 709H525V558H391L194 0H11ZM178 186V328H539V186H178ZM607 0V151H962V0H607ZM466 0V709H644V0H466ZM607 288V435H926V288H607ZM607 558V709H957V558H607Z" />
<glyph unicode="&#xc7;" horiz-adv-x="692" d="M407 -11Q326 -11 257 16T137 93T57 210T28 355Q28 434 56 500T136 616T256 693T405 721Q489 721 556 695T674 621L554 501Q529 529 492 545T405 561Q362 561 327 547T265 506T225 440T210 355Q210 308 224 270T265
205T326 163T405 148Q455 148 493 163T558 208L678 88Q626 41 561 15T407 -11ZM355 -217Q313 -217 285 -208T227 -182L276 -117Q290 -126 305 -131T336 -136Q355 -136 362 -131T370 -116Q370 -107 360 -101T326 -95H304L337 12H427L399 -62L353 -23Q422 -23 458
-49T494 -120Q494 -162 456 -189T355 -217Z" />
<glyph unicode="&#xc8;" horiz-adv-x="627" d="M63 0V709H242V0H63ZM205 0V151H589V0H205ZM205 288V435H553V288H205ZM205 558V709H583V558H205ZM393 761L185 853L269 989L443 847L393 761Z" />
<glyph unicode="&#xc9;" horiz-adv-x="627" d="M63 0V709H242V0H63ZM205 0V151H589V0H205ZM205 288V435H553V288H205ZM205 558V709H583V558H205ZM254 756L204 842L379 984L462 848L254 756Z" />
<glyph unicode="&#xca;" horiz-adv-x="627" d="M63 0V709H242V0H63ZM205 0V151H589V0H205ZM205 288V435H553V288H205ZM205 558V709H583V558H205ZM187 752L137 826L288 966H379L530 826L480 752L265 869L402 868L187 752Z" />
<glyph unicode="&#xcb;" horiz-adv-x="627" d="M63 0V709H242V0H63ZM205 0V151H589V0H205ZM205 288V435H553V288H205ZM205 558V709H583V558H205ZM222 763Q183 763 157 790T131 856Q131 895 157 922T222 949Q262 949 287 922T313 856Q313 817 288 790T222 763ZM447
763Q408 763 382 790T356 856Q356 895 382 922T447 949Q487 949 512 922T538 856Q538 817 513 790T447 763Z" />
<glyph unicode="&#xcc;" horiz-adv-x="305" d="M63 0V709H242V0H63ZM212 761L4 853L88 989L262 847L212 761Z" />
<glyph unicode="&#xcd;" horiz-adv-x="305" d="M63 0V709H242V0H63ZM73 756L23 842L198 984L281 848L73 756Z" />
<glyph unicode="&#xce;" horiz-adv-x="305" d="M63 0V709H242V0H63ZM6 752L-44 826L107 966H198L349 826L299 752L84 869L221 868L6 752Z" />
<glyph unicode="&#xcf;" horiz-adv-x="305" d="M63 0V709H242V0H63ZM41 763Q2 763 -24 790T-50 856Q-50 895 -24 922T41 949Q81 949 106 922T132 856Q132 817 107 790T41 763ZM266 763Q227 763 201 790T175 856Q175 895 201 922T266 949Q306 949 331 922T357 856Q357
817 332 790T266 763Z" />
<glyph unicode="&#xd0;" horiz-adv-x="781" d="M20 423H404V290H20V423ZM204 0V154H374Q434 154 478 177T547 245T571 356Q571 420 547 464T478 532T374 555H196V709H375Q457 709 526 684T646 611T725 499T754 355Q754 275 726 210T646 98T527 26T377 0H204ZM83
0V709H262V0H83Z" />
<glyph unicode="&#xd1;" horiz-adv-x="748" d="M63 0V709H188L242 564V0H63ZM552 0L138 526L188 709L603 183L552 0ZM552 0L506 149V709H685V0H552ZM448 758Q416 758 393 769T349 790T307 801Q284 801 268 792T237 761L158 841Q186 889 220 910T300 931Q332 931
355 921T399 899T440 888Q464 888 480 898T510 928L589 849Q561 801 527 780T448 758Z" />
<glyph unicode="&#xd2;" horiz-adv-x="812" d="M408 -13Q326 -13 257 15T137 93T56 210T27 356Q27 434 55 500T135 617T255 694T406 722Q488 722 557 695T677 617T756 500T785 355Q785 277 757 210T677 93T558 15T408 -13ZM406 147Q466 147 510 173T578 246T602
356Q602 402 589 440T549 505T487 548T406 563Q346 563 302 538T234 465T210 356Q210 308 223 270T263 204T325 162T406 147ZM466 761L258 853L342 989L516 847L466 761Z" />
<glyph unicode="&#xd3;" horiz-adv-x="812" d="M408 -13Q326 -13 257 15T137 93T56 210T27 356Q27 434 55 500T135 617T255 694T406 722Q488 722 557 695T677 617T756 500T785 355Q785 277 757 210T677 93T558 15T408 -13ZM406 147Q466 147 510 173T578 246T602
356Q602 402 589 440T549 505T487 548T406 563Q346 563 302 538T234 465T210 356Q210 308 223 270T263 204T325 162T406 147ZM327 756L277 842L452 984L535 848L327 756Z" />
<glyph unicode="&#xd4;" horiz-adv-x="812" d="M408 -13Q326 -13 257 15T137 93T56 210T27 356Q27 434 55 500T135 617T255 694T406 722Q488 722 557 695T677 617T756 500T785 355Q785 277 757 210T677 93T558 15T408 -13ZM406 147Q466 147 510 173T578 246T602
356Q602 402 589 440T549 505T487 548T406 563Q346 563 302 538T234 465T210 356Q210 308 223 270T263 204T325 162T406 147ZM259 752L209 826L360 966H451L602 826L552 752L337 869L474 868L259 752Z" />
<glyph unicode="&#xd5;" horiz-adv-x="812" d="M408 -13Q326 -13 257 15T137 93T56 210T27 356Q27 434 55 500T135 617T255 694T406 722Q488 722 557 695T677 617T756 500T785 355Q785 277 757 210T677 93T558 15T408 -13ZM406 147Q466 147 510 173T578 246T602
356Q602 402 589 440T549 505T487 548T406 563Q346 563 302 538T234 465T210 356Q210 308 223 270T263 204T325 162T406 147ZM480 758Q448 758 425 769T381 790T339 801Q316 801 300 792T269 761L190 841Q218 889 252 910T332 931Q364 931 387 921T431 899T472
888Q496 888 512 898T542 928L621 849Q593 801 559 780T480 758Z" />
<glyph unicode="&#xd6;" horiz-adv-x="812" d="M408 -13Q326 -13 257 15T137 93T56 210T27 356Q27 434 55 500T135 617T255 694T406 722Q488 722 557 695T677 617T756 500T785 355Q785 277 757 210T677 93T558 15T408 -13ZM406 147Q466 147 510 173T578 246T602
356Q602 402 589 440T549 505T487 548T406 563Q346 563 302 538T234 465T210 356Q210 308 223 270T263 204T325 162T406 147ZM294 763Q255 763 229 790T203 856Q203 895 229 922T294 949Q334 949 359 922T385 856Q385 817 360 790T294 763ZM519 763Q480 763 454
790T428 856Q428 895 454 922T519 949Q559 949 584 922T610 856Q610 817 585 790T519 763Z" />
<glyph unicode="&#xd7;" horiz-adv-x="548" d="M133 92L31 194L416 578L518 476L133 92ZM406 100L39 467L141 569L508 202L406 100Z" />
<glyph unicode="&#xd8;" horiz-adv-x="812" d="M683 741L793 632L129 -32L19 78L683 741ZM408 -13Q326 -13 257 15T137 93T56 210T27 356Q27 434 55 500T135 617T255 694T406 722Q488 722 557 695T677 617T756 500T785 355Q785 277 757 210T677 93T558 15T408
-13ZM406 147Q466 147 510 173T578 246T602 356Q602 402 589 440T549 505T487 548T406 563Q346 563 302 538T234 465T210 356Q210 308 223 270T263 204T325 162T406 147Z" />
<glyph unicode="&#xd9;" horiz-adv-x="708" d="M355 -11Q265 -11 197 26T90 131T52 283V709H230V270Q230 232 246 205T291 163T355 148Q391 148 418 162T461 204T477 269V709H657V282Q657 197 619 131T514 27T355 -11ZM414 761L206 853L290 989L464 847L414 761Z" />
<glyph unicode="&#xda;" horiz-adv-x="708" d="M355 -11Q265 -11 197 26T90 131T52 283V709H230V270Q230 232 246 205T291 163T355 148Q391 148 418 162T461 204T477 269V709H657V282Q657 197 619 131T514 27T355 -11ZM275 756L225 842L400 984L483 848L275 756Z" />
<glyph unicode="&#xdb;" horiz-adv-x="708" d="M355 -11Q265 -11 197 26T90 131T52 283V709H230V270Q230 232 246 205T291 163T355 148Q391 148 418 162T461 204T477 269V709H657V282Q657 197 619 131T514 27T355 -11ZM207 752L157 826L308 966H399L550 826L500
752L285 869L422 868L207 752Z" />
<glyph unicode="&#xdc;" horiz-adv-x="708" d="M355 -11Q265 -11 197 26T90 131T52 283V709H230V270Q230 232 246 205T291 163T355 148Q391 148 418 162T461 204T477 269V709H657V282Q657 197 619 131T514 27T355 -11ZM242 763Q203 763 177 790T151 856Q151 895
177 922T242 949Q282 949 307 922T333 856Q333 817 308 790T242 763ZM467 763Q428 763 402 790T376 856Q376 895 402 922T467 949Q507 949 532 922T558 856Q558 817 533 790T467 763Z" />
<glyph unicode="&#xdd;" horiz-adv-x="694" d="M280 254L9 709H214L421 340H277L484 709H685L412 254H280ZM259 0V327H438V0H259ZM268 756L218 842L393 984L476 848L268 756Z" />
<glyph unicode="&#xde;" horiz-adv-x="640" d="M205 133V266H345Q371 266 392 276T427 308T440 360Q440 391 427 412T393 444T345 455H205V588H376Q444 588 499 561T586 483T618 360Q618 290 586 239T499 160T376 133H205ZM63 0V709H242V0H63Z" />
<glyph unicode="&#xdf;" horiz-adv-x="598" d="M342 -9Q308 -9 285 -2T240 18L285 147Q292 143 301 141T323 138Q348 138 367 148T396 178T407 223Q407 249 395 268T360 300T309 312H273V448H295Q315 448 331 457T355 482T364 520Q364 540 356 556T332 581T294
590Q261 590 241 570T221 511V0H51V501Q51 567 80 620T165 705T299 737Q374 737 425 708T503 632T530 534Q530 484 510 444T444 380L430 417Q482 401 515 372T565 303T582 215Q582 173 565 133T517 61T441 10T342 -9Z" />
<glyph unicode="&#xe0;" horiz-adv-x="603" d="M255 -10Q187 -10 134 23T51 113T21 244Q21 318 51 376T134 466T255 499Q301 499 339 483T401 436T431 368V122Q426 83 402 54T339 7T255 -10ZM292 145Q335 145 361 173T388 245Q388 274 376 296T343 331T293 344Q265
344 244 331T210 296T197 245Q197 216 209 194T243 158T292 145ZM381 0V131L406 251L381 369V489H552V0H381ZM351 541L143 633L227 769L401 627L351 541Z" />
<glyph unicode="&#xe1;" horiz-adv-x="603" d="M255 -10Q187 -10 134 23T51 113T21 244Q21 318 51 376T134 466T255 499Q301 499 339 483T401 436T431 368V122Q426 83 402 54T339 7T255 -10ZM292 145Q335 145 361 173T388 245Q388 274 376 296T343 331T293 344Q265
344 244 331T210 296T197 245Q197 216 209 194T243 158T292 145ZM381 0V131L406 251L381 369V489H552V0H381ZM212 536L162 622L337 764L420 628L212 536Z" />
<glyph unicode="&#xe2;" horiz-adv-x="603" d="M255 -10Q187 -10 134 23T51 113T21 244Q21 318 51 376T134 466T255 499Q301 499 339 483T401 436T431 368V122Q426 83 402 54T339 7T255 -10ZM292 145Q335 145 361 173T388 245Q388 274 376 296T343 331T293 344Q265
344 244 331T210 296T197 245Q197 216 209 194T243 158T292 145ZM381 0V131L406 251L381 369V489H552V0H381ZM145 532L95 606L246 746H337L488 606L438 532L223 649L360 648L145 532Z" />
<glyph unicode="&#xe3;" horiz-adv-x="603" d="M255 -10Q187 -10 134 23T51 113T21 244Q21 318 51 376T134 466T255 499Q301 499 339 483T401 436T431 368V122Q426 83 402 54T339 7T255 -10ZM292 145Q335 145 361 173T388 245Q388 274 376 296T343 331T293 344Q265
344 244 331T210 296T197 245Q197 216 209 194T243 158T292 145ZM381 0V131L406 251L381 369V489H552V0H381ZM365 538Q333 538 310 549T266 570T224 581Q201 581 185 572T154 541L75 621Q103 669 137 690T217 711Q249 711 272 701T316 679T357 668Q381 668 397
678T427 708L506 629Q478 581 444 560T365 538Z" />
<glyph unicode="&#xe4;" horiz-adv-x="603" d="M255 -10Q187 -10 134 23T51 113T21 244Q21 318 51 376T134 466T255 499Q301 499 339 483T401 436T431 368V122Q426 83 402 54T339 7T255 -10ZM292 145Q335 145 361 173T388 245Q388 274 376 296T343 331T293 344Q265
344 244 331T210 296T197 245Q197 216 209 194T243 158T292 145ZM381 0V131L406 251L381 369V489H552V0H381ZM179 543Q140 543 114 570T88 636Q88 675 114 702T179 729Q219 729 244 702T270 636Q270 597 245 570T179 543ZM404 543Q365 543 339 570T313 636Q313
675 339 702T404 729Q444 729 469 702T495 636Q495 597 470 570T404 543Z" />
<glyph unicode="&#xe5;" horiz-adv-x="603" d="M255 -10Q187 -10 134 23T51 113T21 244Q21 318 51 376T134 466T255 499Q301 499 339 483T401 436T431 368V122Q426 83 402 54T339 7T255 -10ZM292 145Q335 145 361 173T388 245Q388 274 376 296T343 331T293 344Q265
344 244 331T210 296T197 245Q197 216 209 194T243 158T292 145ZM381 0V131L406 251L381 369V489H552V0H381ZM292 530Q253 530 223 548T175 595T157 662Q157 700 174 730T222 777T291 795Q329 795 359 778T407 730T425 663Q425 625 408 595T360 548T292 530ZM292
618Q310 618 322 631T334 663Q334 682 322 694T292 707Q272 707 260 694T248 662Q248 644 260 631T292 618Z" />
<glyph unicode="&#xe6;" horiz-adv-x="942" d="M255 -10Q187 -10 134 23T51 113T21 244Q21 318 51 376T134 466T255 499Q301 499 339 483T401 436T431 368V122Q426 83 402 54T339 7T255 -10ZM292 145Q335 145 361 173T388 245Q388 274 376 296T343 331T293 344Q265
344 244 331T210 296T197 245Q197 216 209 194T243 158T292 145ZM381 0V131L406 251L381 369V489H552V0H381ZM696 -11Q624 -11 570 21T484 112T453 245Q453 300 471 346T521 428T594 482T683 501Q756 501 810 470T895 383T926 256Q926 241 925 226T919 190L487
188V300L850 303L771 254Q771 295 760 321T728 362T675 376Q642 376 618 360T581 315T568 245Q568 203 581 174T621 129T686 114Q721 114 749 126T799 163L890 72Q853 31 806 10T696 -11Z" />
<glyph unicode="&#xe7;" horiz-adv-x="501" d="M293 -11Q215 -11 153 22T54 113T18 244Q18 318 54 376T153 467T295 501Q352 501 399 482T485 425L375 315Q360 330 341 337T295 345Q267 345 245 333T209 298T195 245Q195 215 208 193T244 157T295 144Q323 144
343 153T378 179L489 69Q448 29 401 9T293 -11ZM253 -217Q211 -217 183 -208T125 -182L174 -117Q188 -126 203 -131T234 -136Q253 -136 260 -131T268 -116Q268 -107 258 -101T224 -95H202L235 12H325L297 -62L251 -23Q320 -23 356 -49T392 -120Q392 -162 354 -189T253
-217Z" />
<glyph unicode="&#xe8;" horiz-adv-x="554" d="M298 -11Q216 -11 153 21T54 112T18 245Q18 319 53 376T148 467T285 501Q359 501 416 470T506 383T539 256Q539 241 538 226T531 190L100 188V300L462 303L384 254Q383 295 372 321T340 362T287 376Q254 376 230
360T193 315T180 245Q180 203 194 174T234 129T298 114Q334 114 361 126T411 163L502 72Q466 31 415 10T298 -11ZM346 541L138 633L222 769L396 627L346 541Z" />
<glyph unicode="&#xe9;" horiz-adv-x="554" d="M298 -11Q216 -11 153 21T54 112T18 245Q18 319 53 376T148 467T285 501Q359 501 416 470T506 383T539 256Q539 241 538 226T531 190L100 188V300L462 303L384 254Q383 295 372 321T340 362T287 376Q254 376 230
360T193 315T180 245Q180 203 194 174T234 129T298 114Q334 114 361 126T411 163L502 72Q466 31 415 10T298 -11ZM207 536L157 622L332 764L415 628L207 536Z" />
<glyph unicode="&#xea;" horiz-adv-x="554" d="M298 -11Q216 -11 153 21T54 112T18 245Q18 319 53 376T148 467T285 501Q359 501 416 470T506 383T539 256Q539 241 538 226T531 190L100 188V300L462 303L384 254Q383 295 372 321T340 362T287 376Q254 376 230
360T193 315T180 245Q180 203 194 174T234 129T298 114Q334 114 361 126T411 163L502 72Q466 31 415 10T298 -11ZM139 532L89 606L240 746H331L482 606L432 532L217 649L354 648L139 532Z" />
<glyph unicode="&#xeb;" horiz-adv-x="554" d="M298 -11Q216 -11 153 21T54 112T18 245Q18 319 53 376T148 467T285 501Q359 501 416 470T506 383T539 256Q539 241 538 226T531 190L100 188V300L462 303L384 254Q383 295 372 321T340 362T287 376Q254 376 230
360T193 315T180 245Q180 203 194 174T234 129T298 114Q334 114 361 126T411 163L502 72Q466 31 415 10T298 -11ZM174 543Q135 543 109 570T83 636Q83 675 109 702T174 729Q214 729 239 702T265 636Q265 597 240 570T174 543ZM399 543Q360 543 334 570T308 636Q308
675 334 702T399 729Q439 729 464 702T490 636Q490 597 465 570T399 543Z" />
<glyph unicode="&#xec;" horiz-adv-x="276" d="M51 0V489H225V0H51ZM453 541L245 633L329 769L503 627L453 541Z" />
<glyph unicode="&#xed;" horiz-adv-x="276" d="M51 0V489H225V0H51ZM314 536L264 622L439 764L522 628L314 536Z" />
<glyph unicode="&#xee;" horiz-adv-x="276" d="M51 0V489H225V0H51ZM247 532L197 606L348 746H439L590 606L540 532L325 649L462 648L247 532Z" />
<glyph unicode="&#xef;" horiz-adv-x="276" d="M51 0V489H225V0H51ZM282 543Q243 543 217 570T191 636Q191 675 217 702T282 729Q322 729 347 702T373 636Q373 597 348 570T282 543ZM507 543Q468 543 442 570T416 636Q416 675 442 702T507 729Q547 729 572 702T598
636Q598 597 573 570T507 543Z" />
<glyph unicode="&#xf0;" horiz-adv-x="579" d="M290 -11Q214 -11 153 22T57 111T21 238Q21 305 53 358T141 443T262 475Q301 475 323 465T361 438T392 396L326 390L95 709H295L498 412Q558 324 558 237Q558 167 523 111T427 22T290 -11ZM290 140Q318 140 340 153T374
189T387 242Q387 271 375 294T340 330T290 344Q262 344 240 331T205 295T192 242Q192 213 204 190T239 153T290 140ZM92 474L57 564L452 709L487 620L92 474Z" />
<glyph unicode="&#xf1;" horiz-adv-x="583" d="M368 0V276Q368 310 348 329T297 349Q276 349 260 340T234 315T225 276L157 308Q157 367 183 409T254 475T358 499Q411 499 452 475T518 409T542 316V0H368ZM51 0V489H225V0H51ZM366 538Q334 538 311 549T267 570T225
581Q202 581 186 572T155 541L76 621Q104 669 138 690T218 711Q250 711 273 701T317 679T358 668Q382 668 398 678T428 708L507 629Q479 581 445 560T366 538Z" />
<glyph unicode="&#xf2;" horiz-adv-x="582" d="M292 -11Q213 -11 152 22T54 114T18 246Q18 319 53 376T151 467T291 501Q369 501 430 468T528 377T564 246Q564 173 529 115T432 23T292 -11ZM291 144Q320 144 341 156T375 192T387 245Q387 275 375 297T341 332T291
345Q263 345 241 332T207 297T195 244Q195 215 207 192T241 157T291 144ZM351 541L143 633L227 769L401 627L351 541Z" />
<glyph unicode="&#xf3;" horiz-adv-x="582" d="M292 -11Q213 -11 152 22T54 114T18 246Q18 319 53 376T151 467T291 501Q369 501 430 468T528 377T564 246Q564 173 529 115T432 23T292 -11ZM291 144Q320 144 341 156T375 192T387 245Q387 275 375 297T341 332T291
345Q263 345 241 332T207 297T195 244Q195 215 207 192T241 157T291 144ZM212 536L162 622L337 764L420 628L212 536Z" />
<glyph unicode="&#xf4;" horiz-adv-x="582" d="M292 -11Q213 -11 152 22T54 114T18 246Q18 319 53 376T151 467T291 501Q369 501 430 468T528 377T564 246Q564 173 529 115T432 23T292 -11ZM291 144Q320 144 341 156T375 192T387 245Q387 275 375 297T341 332T291
345Q263 345 241 332T207 297T195 244Q195 215 207 192T241 157T291 144ZM144 532L94 606L245 746H336L487 606L437 532L222 649L359 648L144 532Z" />
<glyph unicode="&#xf5;" horiz-adv-x="582" d="M292 -11Q213 -11 152 22T54 114T18 246Q18 319 53 376T151 467T291 501Q369 501 430 468T528 377T564 246Q564 173 529 115T432 23T292 -11ZM291 144Q320 144 341 156T375 192T387 245Q387 275 375 297T341 332T291
345Q263 345 241 332T207 297T195 244Q195 215 207 192T241 157T291 144ZM365 538Q333 538 310 549T266 570T224 581Q201 581 185 572T154 541L75 621Q103 669 137 690T217 711Q249 711 272 701T316 679T357 668Q381 668 397 678T427 708L506 629Q478 581 444 560T365
538Z" />
<glyph unicode="&#xf6;" horiz-adv-x="582" d="M292 -11Q213 -11 152 22T54 114T18 246Q18 319 53 376T151 467T291 501Q369 501 430 468T528 377T564 246Q564 173 529 115T432 23T292 -11ZM291 144Q320 144 341 156T375 192T387 245Q387 275 375 297T341 332T291
345Q263 345 241 332T207 297T195 244Q195 215 207 192T241 157T291 144ZM179 543Q140 543 114 570T88 636Q88 675 114 702T179 729Q219 729 244 702T270 636Q270 597 245 570T179 543ZM404 543Q365 543 339 570T313 636Q313 675 339 702T404 729Q444 729 469 702T495
636Q495 597 470 570T404 543Z" />
<glyph unicode="&#xf7;" horiz-adv-x="571" d="M47 264V405H524V264H47ZM286 50Q247 50 222 76T197 140Q197 179 222 205T286 232Q325 232 350 206T375 140Q375 103 350 77T286 50ZM286 438Q247 438 222 464T197 528Q197 567 222 593T286 620Q325 620 350 594T375
528Q375 491 350 465T286 438Z" />
<glyph unicode="&#xf8;" horiz-adv-x="582" d="M290 -11Q213 -11 151 22T54 114T18 246Q18 319 53 376T151 467T291 501Q369 501 430 468T528 377T564 246Q564 173 528 115T431 23T290 -11ZM290 121Q326 121 352 136T394 179T409 244Q409 282 394 309T353 352T290
368Q255 368 228 353T187 310T172 245Q172 208 186 180T228 137T290 121ZM90 -30L18 42L493 517L565 445L90 -30Z" />
<glyph unicode="&#xf9;" horiz-adv-x="550" d="M275 -11Q206 -11 153 16T69 93T38 206V489H212V206Q212 186 220 171T242 148T275 140Q303 140 320 158T338 206V489H512V206Q512 142 482 93T399 17T275 -11ZM335 541L127 633L211 769L385 627L335 541Z" />
<glyph unicode="&#xfa;" horiz-adv-x="550" d="M275 -11Q206 -11 153 16T69 93T38 206V489H212V206Q212 186 220 171T242 148T275 140Q303 140 320 158T338 206V489H512V206Q512 142 482 93T399 17T275 -11ZM196 536L146 622L321 764L404 628L196 536Z" />
<glyph unicode="&#xfb;" horiz-adv-x="550" d="M275 -11Q206 -11 153 16T69 93T38 206V489H212V206Q212 186 220 171T242 148T275 140Q303 140 320 158T338 206V489H512V206Q512 142 482 93T399 17T275 -11ZM129 532L79 606L230 746H321L472 606L422 532L207 649L344
648L129 532Z" />
<glyph unicode="&#xfc;" horiz-adv-x="550" d="M275 -11Q206 -11 153 16T69 93T38 206V489H212V206Q212 186 220 171T242 148T275 140Q303 140 320 158T338 206V489H512V206Q512 142 482 93T399 17T275 -11ZM163 543Q124 543 98 570T72 636Q72 675 98 702T163
729Q203 729 228 702T254 636Q254 597 229 570T163 543ZM388 543Q349 543 323 570T297 636Q297 675 323 702T388 729Q428 729 453 702T479 636Q479 597 454 570T388 543Z" />
<glyph unicode="&#xfd;" horiz-adv-x="541" d="M197 -1L1 489H187L307 86H234L355 489H541L340 0L197 -1ZM81 -207L226 112L340 0L256 -207H81ZM192 536L142 622L317 764L400 628L192 536Z" />
<glyph unicode="&#xfe;" horiz-adv-x="603" d="M342 -10Q295 -10 255 7T189 53T157 122V360Q163 399 189 430T255 480T342 499Q413 499 467 467T551 376T582 244Q582 171 552 114T467 23T342 -10ZM310 145Q338 145 359 157T393 193T406 245Q406 274 394 296T360
331T310 344Q283 344 261 332T227 297T215 245Q215 216 227 194T260 158T310 145ZM51 -207V729H225V366L196 248L221 129V-207H51Z" />
<glyph unicode="&#xff;" horiz-adv-x="541" d="M197 -1L1 489H187L307 86H234L355 489H541L340 0L197 -1ZM81 -207L226 112L340 0L256 -207H81ZM159 543Q120 543 94 570T68 636Q68 675 94 702T159 729Q199 729 224 702T250 636Q250 597 225 570T159 543ZM384 543Q345
543 319 570T293 636Q293 675 319 702T384 729Q424 729 449 702T475 636Q475 597 450 570T384 543Z" />
<glyph unicode="&#x2013;" horiz-adv-x="576" d="M51 186V325H525V186H51Z" />
<glyph unicode="&#x2014;" horiz-adv-x="870" d="M51 186V324H818V186H51Z" />
<glyph unicode="&#x2018;" horiz-adv-x="266" d="M226 695L151 553L101 540Q109 555 120 566T145 577Q177 577 203 551T229 484Q229 442 201 412T129 381Q88 381 58 411T28 484Q28 502 34 525T61 585L145 739L226 695Z" />
<glyph unicode="&#x2019;" horiz-adv-x="266" d="M39 406L115 547L165 561Q156 545 145 535T120 524Q89 524 63 550T37 616Q37 658 65 688T137 719Q178 719 208 689T238 616Q238 598 231 575T204 515L121 361L39 406Z" />
<glyph unicode="&#x201a;" horiz-adv-x="287" d="M50 -122L125 19L175 33Q167 17 156 7T131 -4Q100 -4 74 22T47 88Q47 131 75 161T148 191Q188 191 218 161T248 88Q248 71 242 48T215 -12L131 -166L50 -122Z" />
<glyph unicode="&#x201c;" horiz-adv-x="502" d="M226 695L151 553L101 540Q109 555 120 566T145 577Q177 577 203 551T229 484Q229 442 201 412T129 381Q88 381 58 411T28 484Q28 502 34 525T61 585L145 739L226 695ZM463 695L387 553L337 540Q346 555 357 566T382
577Q414 577 439 551T465 484Q465 442 437 412T365 381Q324 381 294 411T264 484Q264 502 271 525T298 585L381 739L463 695Z" />
<glyph unicode="&#x201d;" horiz-adv-x="502" d="M276 406L351 547L401 561Q393 545 382 535T357 524Q325 524 299 550T273 616Q273 658 301 688T373 719Q414 719 444 689T474 616Q474 598 468 575T441 515L357 361L276 406ZM39 406L115 547L165 561Q156 545 145
535T120 524Q89 524 63 550T37 616Q37 658 65 688T137 719Q178 719 208 689T238 616Q238 598 231 575T204 515L121 361L39 406Z" />
<glyph unicode="&#x201e;" horiz-adv-x="523" d="M287 -122L362 19L412 33Q404 17 393 7T368 -4Q336 -4 310 22T284 88Q284 130 312 160T384 191Q425 191 455 161T485 88Q485 70 479 47T452 -13L368 -167L287 -122ZM50 -122L126 19L176 33Q167 17 156 7T131 -4Q100
-4 74 22T48 88Q48 130 76 160T148 191Q189 191 219 161T249 88Q249 70 242 47T215 -13L132 -167L50 -122Z" />
<glyph unicode="&#x2022;" horiz-adv-x="355" d="M178 240Q140 240 111 257T65 305T48 370Q48 406 64 435T110 482T178 500Q215 500 244 483T290 436T307 370Q307 335 291 305T245 258T178 240Z" />
<glyph unicode="&#x2039;" horiz-adv-x="297" d="M120 67L19 246L120 425H279L173 246L279 67H120Z" />
<glyph unicode="&#x203a;" horiz-adv-x="297" d="M18 67L124 246L18 425H177L278 246L177 67H18Z" />
</font>
</defs>
</svg>
