<?xml version="1.0" standalone="no"?>
<!DOCTYPE svg PUBLIC "-//W3C//DTD SVG 1.1//EN" "http://www.w3.org/Graphics/SVG/1.1/DTD/svg11.dtd">
<svg xmlns="http://www.w3.org/2000/svg">
<defs >
<font id="Outfit" horiz-adv-x="559" ><font-face
    font-family="Outfit Thin Thin"
    units-per-em="1000"
    panose-1="0 0 0 0 0 0 0 0 0 0"
    ascent="1000"
    descent="-260"
    alphabetic="0" />
<glyph unicode=" " horiz-adv-x="230" />
<glyph unicode="!" horiz-adv-x="259" d="M117 185L110 696H149L142 185H117ZM128 -10Q111 -10 100 2T88 30Q88 47 99 59T128 71Q145 71 156 59T168 30Q168 14 157 2T128 -10Z" />
<glyph unicode="&quot;" horiz-adv-x="322" d="M202 518L192 696H231L221 518H202ZM101 518L91 696H130L120 518H101Z" />
<glyph unicode="#" horiz-adv-x="635" d="M356 0L449 676H479L385 0H356ZM64 227V253H542V227H64ZM147 0L241 676H270L176 0H147ZM92 434V460H570V434H92Z" />
<glyph unicode="$" horiz-adv-x="599" d="M309 -10Q234 -10 178 20T82 104L105 126Q146 69 196 45T311 20Q382 20 428 56T474 156Q474 204 456 234T406 284T338 317T264 346T196 382T147 437T128 523Q128 572 150 608T213 665T308 686Q371 686 420 661T505 589L482
567Q450 610 408 633T308 656Q243 656 202 621T160 524Q160 479 178 451T228 404T296 372T370 343T438 306T487 250T506 162Q506 77 453 34T309 -10ZM302 -100V776H328V-100H302Z" />
<glyph unicode="%" horiz-adv-x="666" d="M215 412Q178 412 147 430T97 479T78 549Q78 587 96 618T146 667T215 685Q253 685 284 667T334 618T353 549Q353 511 335 480T285 430T215 412ZM214 441Q260 441 290 471T321 550Q321 597 290 626T214 656Q171 656 141
627T110 550Q110 501 140 471T214 441ZM450 -10Q413 -10 382 8T332 57T313 127Q313 165 331 196T381 245T450 263Q488 263 519 245T569 196T588 127Q588 89 570 58T520 8T450 -10ZM449 19Q495 19 525 49T556 128Q556 175 525 204T449 234Q406 234 376 205T345 128Q345
79 375 49T449 19ZM98 0L532 676H568L134 0H98Z" />
<glyph unicode="&amp;" horiz-adv-x="627" d="M565 0L233 335Q189 379 169 421T148 509Q148 562 170 601T234 663T328 686Q363 686 393 676T447 648T489 601L466 578Q441 616 407 635T329 655Q262 655 221 615T180 506Q180 465 198 430T261 350L610 0H565ZM288
-10Q228 -10 181 15T107 85T80 186Q80 250 114 304T204 386L223 364Q174 342 143 293T112 186Q112 138 135 101T198 42T289 20Q345 20 393 46T466 119L487 98Q468 65 438 41T369 3T288 -10Z" />
<glyph unicode="&apos;" horiz-adv-x="221" d="M101 518L91 696H130L120 518H101Z" />
<glyph unicode="(" horiz-adv-x="313" d="M247 -108Q186 -63 146 2T85 145T64 305Q64 387 84 464T145 607T247 718L267 698Q180 631 137 528T93 305Q93 185 136 83T267 -88L247 -108Z" />
<glyph unicode=")" horiz-adv-x="312" d="M66 -108L46 -88Q133 -20 176 82T220 305Q220 425 177 528T46 698L66 718Q127 673 167 608T228 465T249 305Q249 223 229 146T168 3T66 -108Z" />
<glyph unicode="*" horiz-adv-x="485" d="M246 388L229 548L85 467L70 497L223 562L98 671L122 694L235 573L302 721L333 707L249 567L415 551L411 518L246 551L280 392L246 388Z" />
<glyph unicode="+" horiz-adv-x="526" d="M75 319V345H451V319H75ZM249 530H277V134H249V530Z" />
<glyph unicode="," horiz-adv-x="271" d="M100 -89L146 6L160 8Q158 1 152 -3T136 -8Q121 -8 110 3T98 30Q98 47 110 59T140 71Q156 71 168 59T180 30Q180 23 179 14T169 -12L124 -102L100 -89Z" />
<glyph unicode="-" horiz-adv-x="459" d="M80 237V267H379V237H80Z" />
<glyph unicode="." horiz-adv-x="288" d="M144 -10Q127 -10 116 2T104 31Q104 48 115 59T144 71Q161 71 172 60T184 31Q184 15 173 3T144 -10Z" />
<glyph unicode="/" horiz-adv-x="358" d="M30 -40L299 710H328L59 -40H30Z" />
<glyph unicode="0" horiz-adv-x="659" d="M331 -10Q258 -10 198 33T101 154T65 339Q65 446 100 523T196 643T329 686Q403 686 463 644T558 523T594 338Q594 232 559 154T464 33T331 -10ZM329 20Q395 20 447 58T531 168T562 339Q562 437 531 508T448 617T329 656Q264
656 212 618T128 508T97 339Q97 240 128 169T211 59T329 20Z" />
<glyph unicode="1" horiz-adv-x="321" d="M195 0V676H226V0H195ZM45 648V676H216V648H45Z" />
<glyph unicode="2" horiz-adv-x="539" d="M48 22L299 280Q356 339 385 376T424 442T434 504Q434 575 391 615T272 656Q210 656 164 629T82 548L59 571Q99 627 151 656T272 686Q331 686 374 664T442 600T466 502Q466 464 455 431T413 360T327 264L93 25L48 22ZM48
0V22L69 28H486V0H48Z" />
<glyph unicode="3" horiz-adv-x="530" d="M250 -10Q187 -10 135 16T47 91L68 112Q97 68 144 44T250 19Q306 19 348 41T414 103T438 197Q438 251 414 291T348 354T248 377Q232 377 216 375T180 368L186 384Q198 395 215 399T257 404Q318 404 366 377T442 303T470
197Q470 136 442 90T364 17T250 -10ZM180 368V390L429 662L462 654L212 381L180 368ZM73 648V676H462V654L434 648H73Z" />
<glyph unicode="4" horiz-adv-x="594" d="M48 206L312 676H347L79 206H48ZM48 184V206L61 212H547V184H48ZM409 0V460H440V0H409Z" />
<glyph unicode="5" horiz-adv-x="530" d="M249 -10Q186 -10 135 16T48 91L69 112Q98 68 144 44T249 19Q305 19 347 42T414 106T439 202Q439 258 416 300T350 365T253 389Q208 389 168 375T100 335L94 358Q114 378 139 390T192 409T253 416Q318 416 367 389T443
313T471 201Q471 139 442 92T363 17T249 -10ZM100 335L85 351L114 676H144L113 351L100 335ZM131 648L114 676H448V648H131Z" />
<glyph unicode="6" horiz-adv-x="568" d="M283 -10Q220 -10 169 20T88 101T57 215Q57 295 112 365L354 676H393L169 396L159 401Q177 414 198 423T242 437T288 442Q349 442 399 411T480 329T511 216Q511 154 480 103T398 21T283 -10ZM284 17Q337 17 381 44T452
117T479 216Q479 270 453 315T382 388T284 415Q230 415 186 389T115 317T89 216Q89 161 115 116T185 44T284 17Z" />
<glyph unicode="7" horiz-adv-x="533" d="M183 0L457 664L485 654L216 0H183ZM45 648V676H485V654L470 648H45Z" />
<glyph unicode="8" horiz-adv-x="556" d="M278 -10Q216 -10 166 16T88 86T59 187Q59 232 77 270T127 334T202 370L221 360Q181 371 152 394T108 449T92 520Q92 569 116 606T182 664T278 686Q332 686 374 665T440 606T464 520Q464 482 449 450T404 394T335 360L354
370Q396 361 428 335T478 270T497 187Q497 131 469 87T391 16T278 -10ZM278 17Q333 17 375 38T441 98T465 187Q465 236 441 274T375 334T278 356Q224 356 182 334T115 274T91 187Q91 137 115 99T181 39T278 17ZM278 379Q346 379 389 418T432 520Q432 582 389 620T278
659Q210 659 167 621T124 520Q124 457 167 418T278 379Z" />
<glyph unicode="9" horiz-adv-x="568" d="M175 0L399 280L409 275Q391 262 370 253T327 239T280 234Q219 234 169 265T88 347T57 460Q57 523 88 574T170 655T285 686Q348 686 399 656T481 575T511 461Q511 381 456 311L214 0H175ZM284 261Q338 261 382 287T453
359T479 460Q479 516 453 561T383 632T284 659Q231 659 187 632T116 560T89 460Q89 406 115 361T186 289T284 261Z" />
<glyph unicode=":" horiz-adv-x="269" d="M134 -10Q117 -10 106 2T95 31Q95 48 106 59T134 71Q151 71 163 60T175 31Q175 15 163 3T134 -10ZM134 310Q117 310 106 322T95 351Q95 368 106 379T134 391Q151 391 163 380T175 351Q175 335 163 323T134 310Z" />
<glyph unicode=";" horiz-adv-x="269" d="M97 -89L143 6L157 8Q155 1 149 -3T133 -8Q118 -8 107 3T95 30Q95 47 107 59T137 71Q153 71 165 59T177 30Q177 23 176 14T166 -12L121 -102L97 -89ZM135 310Q118 310 107 322T96 351Q96 368 107 379T135 391Q152 391
164 380T176 351Q176 335 164 323T135 310Z" />
<glyph unicode="&lt;" horiz-adv-x="521" d="M446 150L70 325V345L446 520V491L89 327V343L446 179V150Z" />
<glyph unicode="=" horiz-adv-x="526" d="M75 434V460H451V434H75ZM75 204V230H451V204H75Z" />
<glyph unicode="&gt;" horiz-adv-x="521" d="M75 491V520L451 345V325L75 150V179L432 343V327L75 491Z" />
<glyph unicode="?" horiz-adv-x="503" d="M234 185L231 366L255 367Q298 369 330 391T381 449T400 526Q400 567 382 601T330 655T249 675Q188 675 148 649T84 585L61 608Q87 649 135 677T249 706Q305 706 346 683T410 619T433 526Q433 477 410 435T346 366T252
338L262 353L259 185H234ZM245 -10Q228 -10 217 2T205 30Q205 47 216 59T245 71Q262 71 273 59T285 30Q285 14 274 2T245 -10Z" />
<glyph unicode="@" horiz-adv-x="790" d="M382 95Q343 95 312 114T262 165T244 237Q244 278 262 310T311 362T382 381Q433 381 466 353T500 287V188Q500 151 467 123T382 95ZM382 121Q432 121 462 153T492 238Q492 292 463 323T383 355Q338 355 306 323T274 238Q274
186 305 154T382 121ZM488 106V174L497 242L488 307V375H518V106H488ZM588 15L609 -5Q566 -42 513 -61T398 -80Q333 -80 276 -56T177 11T110 112T86 237Q86 305 110 363T178 464T280 532T404 556Q492 556 559 516T666 404T705 240Q705 198 697 167T670 106L643
114Q656 134 662 150T672 187T675 242Q675 328 640 392T544 492T404 528Q325 528 260 491T156 388T117 236Q117 152 155 87T256 -15T396 -52Q459 -52 506 -35T588 15ZM493 133H670V106H493V133Z" />
<glyph unicode="A" horiz-adv-x="678" d="M50 0L325 676H355L628 0H593L332 648H347L84 0H50ZM165 223V252H514V223H165Z" />
<glyph unicode="B" horiz-adv-x="627" d="M115 0V29H350Q432 29 481 72T531 186Q531 232 510 267T450 322T362 342H115V369H357Q423 369 461 406T499 508Q499 573 456 610T341 647H115V676H341Q399 676 441 656T507 599T531 510Q531 450 501 409T414 350L419 362Q487
346 525 299T564 186Q564 130 537 88T461 23T345 0H115ZM99 0V676H131V0H99Z" />
<glyph unicode="C" horiz-adv-x="703" d="M405 -10Q333 -10 271 16T163 91T92 202T66 339Q66 413 91 476T161 586T268 659T400 686Q473 686 536 658T645 580L622 557Q582 603 525 629T400 655Q336 655 282 631T186 564T123 464T100 339Q100 272 123 214T186 113T282
45T402 21Q470 21 528 47T627 120L650 97Q605 47 542 19T405 -10Z" />
<glyph unicode="D" horiz-adv-x="738" d="M110 0V30H331Q421 30 490 70T599 179T638 339Q638 428 599 497T491 606T331 646H114V676H331Q406 676 468 651T576 581T647 474T672 338Q672 265 647 203T577 96T469 25T333 0H110ZM99 0V676H131V0H99Z" />
<glyph unicode="E" horiz-adv-x="588" d="M99 0V676H131V0H99ZM117 0V29H534V0H117ZM117 333V361H504V333H117ZM117 647V676H528V647H117Z" />
<glyph unicode="F" horiz-adv-x="567" d="M99 0V676H131V0H99ZM117 321V350H498V321H117ZM117 647V676H515V647H117Z" />
<glyph unicode="G" horiz-adv-x="774" d="M406 -9Q332 -9 270 17T162 89T91 199T66 338Q66 413 91 476T163 587T271 661T407 687Q490 687 558 654T668 558L644 534Q604 593 544 624T407 656Q318 656 249 615T140 501T100 337Q100 246 139 175T246 63T404 22Q488
22 550 58T646 161T682 322L694 312H392V341H715V335Q715 227 677 150T570 32T406 -9Z" />
<glyph unicode="H" horiz-adv-x="687" d="M99 0V676H131V0H99ZM556 0V676H588V0H556ZM117 333V362H572V333H117Z" />
<glyph unicode="I" horiz-adv-x="230" d="M99 0V676H131V0H99Z" />
<glyph unicode="J" horiz-adv-x="496" d="M215 -10Q160 -10 121 10T49 68L71 90Q98 56 132 39T215 21Q253 21 289 38T348 95T372 199V676H404V193Q404 125 377 80T306 13T215 -10Z" />
<glyph unicode="K" horiz-adv-x="646" d="M548 0L120 352L539 676H588L155 342V363L598 0H548ZM99 0V676H131V0H99Z" />
<glyph unicode="L" horiz-adv-x="558" d="M99 0V676H131V0H99ZM117 0V29H509V0H117Z" />
<glyph unicode="M" horiz-adv-x="830" d="M99 0V676H123L426 180H404L707 676H731V0H699V622L707 620L427 161H403L123 620L131 622V0H99Z" />
<glyph unicode="N" horiz-adv-x="689" d="M99 0V676H123L131 634V0H99ZM566 0L116 633L123 676L573 43L566 0ZM566 0L558 42V676H590V0H566Z" />
<glyph unicode="O" horiz-adv-x="793" d="M398 -10Q327 -10 267 16T161 91T91 202T66 339Q66 413 90 476T160 586T265 659T396 686Q467 686 527 660T632 586T702 476T727 338Q727 265 703 202T633 91T529 17T398 -10ZM396 21Q481 21 548 63T654 177T693 339Q693
406 671 463T608 564T514 631T396 655Q311 655 244 614T139 501T100 339Q100 272 122 214T185 113T279 45T396 21Z" />
<glyph unicode="P" horiz-adv-x="611" d="M115 288V317H345Q395 317 434 337T495 394T518 482Q518 533 496 570T434 627T345 647H115V676H350Q408 676 453 652T524 585T551 482Q551 423 525 380T453 312T350 288H115ZM99 0V676H131V0H99Z" />
<glyph unicode="Q" horiz-adv-x="807" d="M398 -10Q327 -10 267 16T161 91T91 202T66 339Q66 413 90 476T160 586T265 659T396 686Q467 686 527 660T632 586T702 476T727 338Q727 265 703 202T633 91T529 17T398 -10ZM396 21Q481 21 548 63T654 177T693 339Q693
406 671 463T608 564T514 631T396 655Q311 655 244 614T139 501T100 339Q100 272 122 214T185 113T279 45T396 21ZM766 -51L412 303L432 323L786 -31L766 -51Z" />
<glyph unicode="R" horiz-adv-x="637" d="M115 318V347H337Q420 347 463 388T506 497Q506 565 463 606T337 647H115V676H332Q399 676 445 654T515 591T539 497Q539 444 515 404T445 341T332 318H115ZM99 0V676H131V0H99ZM547 0L276 332L311 338L590 0H547Z" />
<glyph unicode="S" horiz-adv-x="552" d="M285 -10Q207 -10 149 20T50 104L73 126Q115 69 168 45T287 20Q361 20 408 56T455 156Q455 204 436 234T384 284T314 317T238 346T168 382T117 437T97 523Q97 572 120 608T186 665T284 686Q349 686 400 661T487 589L464
567Q430 610 387 633T284 656Q216 656 173 621T130 524Q130 479 149 451T201 404T271 372T347 343T417 306T468 250T488 162Q488 77 434 34T285 -10Z" />
<glyph unicode="T" horiz-adv-x="644" d="M306 0V657H338V0H306ZM49 647V676H595V647H49Z" />
<glyph unicode="U" horiz-adv-x="662" d="M331 -10Q262 -10 208 21T122 106T90 228V676H122V234Q122 169 149 121T224 47T331 21Q391 21 438 47T512 121T540 233V676H572V227Q572 159 541 106T455 21T331 -10Z" />
<glyph unicode="V" horiz-adv-x="662" d="M315 0L50 676H85L338 29H323L578 676H612L345 0H315Z" />
<glyph unicode="W" horiz-adv-x="976" d="M266 0L51 676H85L286 30H271L472 676H503L705 30H689L891 676H925L710 0H682L481 644H494L294 0H266Z" />
<glyph unicode="X" horiz-adv-x="671" d="M582 0L331 335H326L60 676H99L341 363H346L622 0H582ZM49 0L325 352L343 331L86 0H49ZM349 334L333 357L575 676H612L349 334Z" />
<glyph unicode="Y" horiz-adv-x="645" d="M321 288L48 676H87L328 333H318L562 676H598L323 288H321ZM307 0V321H339V0H307Z" />
<glyph unicode="Z" horiz-adv-x="565" d="M52 18L474 658H512L90 18H52ZM52 0V18L78 29H505V0H52ZM67 647V676H512V658L485 647H67Z" />
<glyph unicode="[" horiz-adv-x="328" d="M95 -96V696H124V-96H95ZM110 -96V-71H281V-96H110ZM110 671V696H281V671H110Z" />
<glyph unicode="\" horiz-adv-x="358" d="M299 -40L30 710H59L328 -40H299Z" />
<glyph unicode="]" horiz-adv-x="328" d="M204 -96V696H233V-96H204ZM47 -96V-71H218V-96H47ZM47 671V696H218V671H47Z" />
<glyph unicode="^" horiz-adv-x="458" d="M350 457L226 674H232L108 457H75L216 696H241L383 457H350Z" />
<glyph unicode="_" horiz-adv-x="576" d="M80 -92V-66H496V-92H80Z" />
<glyph unicode="`" horiz-adv-x="244" d="M191 537L40 677L67 704L204 550L191 537Z" />
<glyph unicode="a" horiz-adv-x="589" d="M287 -10Q219 -10 166 21T81 107T50 229Q50 297 81 351T165 438T285 470Q338 470 380 451T451 395T491 309V152Q479 102 451 66T381 10T287 -10ZM291 19Q377 19 428 76T479 229Q479 293 456 340T389 414T289 441Q229 441
183 414T109 339T82 230Q82 169 109 122T183 47T291 19ZM478 0V123L487 237L478 348V460H509V0H478Z" />
<glyph unicode="b" horiz-adv-x="589" d="M309 -10Q257 -10 214 10T140 66T97 152V309Q109 360 140 396T215 451T309 470Q375 470 426 439T508 353T538 229Q538 161 509 107T427 22T309 -10ZM303 19Q363 19 408 46T480 121T506 230Q506 292 480 339T409 414T306
441Q248 441 204 414T135 340T110 229Q110 168 134 121T202 46T303 19ZM80 0V696H111V348L101 237L111 123V0H80Z" />
<glyph unicode="c" horiz-adv-x="495" d="M287 -10Q220 -10 167 22T82 109T50 232Q50 299 81 353T166 438T287 470Q337 470 380 452T455 400L434 379Q407 408 369 424T287 441Q229 441 183 414T109 339T82 232Q82 171 109 123T182 47T287 19Q332 19 370 35T437
82L458 61Q426 27 382 9T287 -10Z" />
<glyph unicode="d" horiz-adv-x="589" d="M280 -10Q214 -10 163 21T81 107T51 229Q51 298 81 352T163 438T280 470Q330 470 374 451T449 396T492 309V152Q480 103 450 67T376 10T280 -10ZM286 19Q343 19 386 46T454 120T479 229Q479 292 454 339T385 414T283 441Q225
441 180 414T109 340T83 230Q83 169 109 121T181 46T286 19ZM509 0H478V123L488 237L478 348V696H509V0Z" />
<glyph unicode="e" horiz-adv-x="542" d="M291 -10Q222 -10 168 21T82 107T50 231Q50 299 80 353T164 438T285 470Q347 470 394 443T469 366T496 253Q496 249 496 241T493 219H72V248H473L464 241Q468 300 446 345T383 415T284 441Q224 441 179 415T108 342T82
233Q82 169 108 121T183 46T295 19Q343 19 383 37T452 91L473 70Q442 33 395 12T291 -10Z" />
<glyph unicode="f" horiz-adv-x="386" d="M153 0V556Q153 600 171 633T223 686T298 705Q330 705 357 694T404 661L383 640Q364 660 343 668T297 677Q244 677 214 643T184 552V0H153ZM31 433V460H354V433H31Z" />
<glyph unicode="g" horiz-adv-x="589" d="M269 -206Q203 -206 149 -181T62 -109L81 -90Q108 -129 157 -153T270 -177Q366 -177 422 -125T479 17V134L488 242L479 347V460H510V17Q510 -50 480 -100T396 -178T269 -206ZM284 0Q217 0 165 30T82 114T51 235Q51 302
81 355T163 439T282 470Q335 470 378 451T451 395T492 309V160Q480 111 451 75T379 20T284 0ZM288 29Q345 29 388 54T456 126T480 235Q480 296 456 342T388 414T286 441Q227 441 181 415T109 342T83 236Q83 176 109 129T182 56T288 29Z" />
<glyph unicode="h" horiz-adv-x="537" d="M436 0V275Q436 350 393 396T278 442Q229 442 192 421T133 362T111 276L90 288Q90 340 115 381T184 446T283 470Q338 470 379 445T444 376T467 275V0H436ZM80 0V696H111V0H80Z" />
<glyph unicode="i" horiz-adv-x="192" d="M80 0V460H111V0H80ZM95 575Q82 575 73 585T64 608Q64 622 73 631T95 640Q109 640 118 631T128 608Q128 595 119 585T95 575Z" />
<glyph unicode="j" horiz-adv-x="193" d="M-17 -206Q-48 -206 -75 -195T-123 -162L-102 -141Q-83 -160 -62 -169T-16 -178Q25 -178 53 -154T82 -77V460H113V-76Q113 -119 95 -148T48 -191T-17 -206ZM96 575Q83 575 74 585T65 608Q65 622 74 631T96 640Q110 640
119 631T129 608Q129 595 120 585T96 575Z" />
<glyph unicode="k" horiz-adv-x="457" d="M382 0L104 237L375 460H418L136 229L135 247L427 0H382ZM80 0V696H111V0H80Z" />
<glyph unicode="l" horiz-adv-x="191" d="M80 0V696H111V0H80Z" />
<glyph unicode="m" horiz-adv-x="837" d="M80 0V460H111V0H80ZM408 0V290Q408 358 368 400T265 442Q223 442 188 423T132 371T111 292L90 293Q90 346 113 386T177 448T268 470Q317 470 355 448T416 386T439 292V0H408ZM736 0V290Q736 358 696 400T593 442Q551
442 516 423T460 371T439 292L418 293Q418 347 442 386T506 448T596 470Q645 470 683 448T744 386T767 291V0H736Z" />
<glyph unicode="n" horiz-adv-x="537" d="M436 0V275Q436 350 393 396T278 442Q229 442 192 421T133 362T111 276L90 288Q90 340 115 381T184 446T283 470Q338 470 379 445T444 376T467 275V0H436ZM80 0V460H111V0H80Z" />
<glyph unicode="o" horiz-adv-x="573" d="M287 -10Q220 -10 167 22T82 109T50 232Q50 299 81 353T166 438T287 470Q353 470 406 439T491 353T523 232Q523 163 492 109T407 22T287 -10ZM287 19Q345 19 391 47T464 123T491 233Q491 292 464 339T391 413T287 441Q229
441 183 414T109 339T82 232Q82 171 109 123T182 47T287 19Z" />
<glyph unicode="p" horiz-adv-x="589" d="M309 -10Q257 -10 214 10T140 66T97 152V309Q109 360 140 396T215 451T309 470Q375 470 426 439T508 353T538 229Q538 161 509 107T427 22T309 -10ZM303 19Q363 19 408 46T480 121T506 230Q506 292 480 339T409 414T306
441Q248 441 204 414T135 340T110 229Q110 168 134 121T202 46T303 19ZM80 -196V460H111V348L101 237L111 123V-196H80Z" />
<glyph unicode="q" horiz-adv-x="590" d="M288 -10Q220 -10 167 21T82 107T51 229Q51 297 82 351T166 438T286 470Q339 470 381 451T452 395T492 309V152Q480 102 452 66T382 10T288 -10ZM292 19Q378 19 429 76T480 229Q480 293 457 340T390 414T290 441Q230 441
184 414T110 339T83 230Q83 169 110 122T184 47T292 19ZM479 -196V123L488 237L479 348V460H510V-196H479Z" />
<glyph unicode="r" horiz-adv-x="402" d="M80 0V460H111V0H80ZM111 281L90 287Q90 375 136 422T253 470Q287 470 316 458T371 420L350 397Q329 420 305 430T248 440Q187 440 149 399T111 281Z" />
<glyph unicode="s" horiz-adv-x="417" d="M212 -10Q175 -10 143 0T84 29T38 72L59 94Q89 55 128 37T213 18Q270 18 304 42T338 110Q338 148 319 170T268 204T203 226T137 249T87 287T67 354Q67 388 85 414T136 455T214 470Q263 470 304 453T368 402L347 381Q327
409 291 425T211 442Q155 442 126 417T97 355Q97 320 116 300T167 269T232 249T298 225T348 185T368 114Q368 57 326 24T212 -10Z" />
<glyph unicode="t" horiz-adv-x="336" d="M153 0V656H184V0H153ZM31 433V460H305V433H31Z" />
<glyph unicode="u" horiz-adv-x="512" d="M256 -10Q202 -10 160 15T93 86T69 192V460H100V193Q100 142 119 103T174 41T256 18Q326 18 369 67T412 193V460H443V192Q443 133 419 87T353 16T256 -10Z" />
<glyph unicode="v" horiz-adv-x="514" d="M247 0L31 460H65L265 28H248L449 460H483L265 0H247Z" />
<glyph unicode="w" horiz-adv-x="738" d="M203 0L33 460H66L221 28H203L360 460H378L535 28H517L672 460H705L535 0H516L357 438H381L222 0H203Z" />
<glyph unicode="x" horiz-adv-x="488" d="M417 0L240 224L231 231L39 460H79L249 253L258 247L457 0H417ZM31 0L233 247L247 222L70 0H31ZM257 231L243 254L410 460H449L257 231Z" />
<glyph unicode="y" horiz-adv-x="502" d="M240 0L32 460H66L258 28H235L436 460H470L252 0H240ZM126 -196L236 30L252 0L159 -196H126Z" />
<glyph unicode="z" horiz-adv-x="433" d="M35 17L360 443H397L72 17H35ZM35 0V17L56 27H392V0H35ZM51 433V460H397V443L366 433H51Z" />
<glyph unicode="{" horiz-adv-x="313" d="M232 -96Q168 -96 131 -52T107 89L121 195Q128 244 114 267T72 290H45V313H72Q99 313 113 336T121 408L107 511Q94 607 131 651T232 696H266V671H240Q186 671 156 636T136 515L149 407Q153 377 148 353T127 314T84 292V308Q111
304 126 289T147 250T149 196L136 85Q126 0 156 -35T240 -71H266V-96H232Z" />
<glyph unicode="|" horiz-adv-x="267" d="M119 -130V746H148V-130H119Z" />
<glyph unicode="}" horiz-adv-x="313" d="M81 -96H47V-71H73Q127 -71 157 -36T177 85L164 196Q161 226 166 249T186 288T229 308V292Q202 299 187 314T166 353T164 407L177 515Q188 601 158 636T73 671H47V696H81Q145 696 182 652T206 511L192 408Q185 359 199
336T241 313H268V290H241Q214 290 200 267T192 195L206 89Q219 -7 182 -51T81 -96Z" />
<glyph unicode="~" horiz-adv-x="547" d="M366 295Q343 295 323 301T282 316T239 331T188 338Q153 338 133 328T98 299L79 315Q96 337 121 351T188 365Q216 365 238 359T281 344T322 329T366 322Q395 322 415 332T449 361L467 345Q451 323 427 309T366 295Z" />
<glyph unicode="&#xa0;" horiz-adv-x="230" />
<glyph unicode="&#xa1;" horiz-adv-x="259" d="M110 -196L117 275H142L149 -196H110ZM128 389Q111 389 100 401T88 429Q88 446 99 458T128 470Q145 470 156 458T168 429Q168 413 157 401T128 389Z" />
<glyph unicode="&#xa2;" horiz-adv-x="501" d="M290 98Q223 98 170 130T85 217T53 340Q53 407 84 461T169 546T290 578Q340 578 383 560T458 508L437 487Q410 516 372 532T290 549Q232 549 186 522T112 447T85 340Q85 279 112 231T185 155T290 127Q335 127 373
143T440 190L461 169Q429 135 385 117T290 98ZM263 10V666H289V10H263Z" />
<glyph unicode="&#xa3;" horiz-adv-x="612" d="M186 10V493Q186 555 211 598T279 663T373 686Q438 686 478 662T541 607L518 584Q493 614 459 634T371 655Q330 655 295 637T239 584T218 496V10H186ZM78 0V29H528V0H78ZM78 309V338H448V309H78Z" />
<glyph unicode="&#xa4;" horiz-adv-x="458" d="M229 146Q176 146 133 172T64 242T39 340Q39 394 64 437T132 505T229 531Q282 531 325 506T393 438T419 340Q419 285 394 241T325 172T229 146ZM229 173Q275 173 311 195T368 255T389 341Q389 387 368 424T311 482T229
504Q183 504 147 483T90 424T69 340Q69 292 90 255T147 195T229 173ZM365 457L347 475L420 548L438 529L365 457ZM39 130L20 148L93 221L111 203L39 130ZM347 203L365 221L438 148L420 130L347 203ZM20 529L39 548L111 475L93 457L20 529Z" />
<glyph unicode="&#xa5;" horiz-adv-x="652" d="M324 288L86 676H124L331 333H321L530 676H566L326 288H324ZM310 0V321H342V0H310ZM245 440L261 412H111V440H245ZM111 238V266H541V238H111ZM384 412L403 440H541V412H384Z" />
<glyph unicode="&#xa6;" horiz-adv-x="267" d="M119 386V746H148V386H119ZM119 -130V230H148V-130H119Z" />
<glyph unicode="&#xa7;" horiz-adv-x="524" d="M271 140L272 165Q335 165 373 194T411 267Q411 311 390 335T334 372T262 397T189 424T134 469T112 548Q112 588 131 619T187 668T273 686Q329 686 373 664T441 605L419 582Q396 617 355 636T269 655Q207 655 175
625T143 550Q143 507 164 484T220 447T292 423T365 396T420 351T442 271Q442 232 421 203T361 157T271 140ZM251 -121Q196 -121 151 -99T83 -40L105 -17Q128 -52 169 -71T255 -90Q317 -90 349 -59T381 15Q381 58 360 81T304 118T232 142T159 169T104 214T82 294Q82
334 103 363T163 408T253 425L252 400Q189 400 151 371T113 298Q113 255 134 231T190 193T262 168T335 141T390 96T412 17Q412 -23 393 -54T337 -103T251 -121Z" />
<glyph unicode="&#xa8;" horiz-adv-x="354" d="M91 545Q78 545 69 555T60 578Q60 592 69 601T91 610Q105 610 114 601T124 578Q124 565 115 555T91 545ZM261 545Q248 545 239 555T230 578Q230 592 239 601T261 610Q275 610 284 601T294 578Q294 565 285 555T261 545Z" />
<glyph unicode="&#xa9;" horiz-adv-x="859" d="M431 -10Q355 -10 292 16T182 91T111 202T85 339Q85 413 110 476T181 586T290 659T429 686Q505 686 568 660T678 586T749 476T774 338Q774 265 749 202T678 91T570 17T431 -10ZM429 21Q521 21 591 63T700 177T740
339Q740 428 701 499T591 613T429 655Q337 655 267 614T158 501T119 339Q119 249 158 177T268 63T429 21ZM432 146Q379 146 336 172T267 242T242 340Q242 394 267 437T335 505T432 531Q472 531 506 517T568 474L548 451Q527 474 498 487T432 500Q389 500 354 480T297
423T276 340Q276 292 297 255T353 197T432 176Q466 176 497 188T551 225L570 203Q545 176 509 161T432 146Z" />
<glyph unicode="&#xaa;" horiz-adv-x="352" d="M170 392Q130 392 98 411T47 462T28 536Q28 578 46 611T97 663T169 682Q215 682 248 656T291 583V491Q282 445 250 419T170 392ZM173 417Q222 417 251 449T281 537Q281 591 251 624T172 657Q121 657 88 623T55 537Q55
485 88 451T173 417ZM280 398V472L286 541L280 608V676H306V398H280Z" />
<glyph unicode="&#xab;" horiz-adv-x="405" d="M177 83L53 234L177 385H213L87 234L213 83H177ZM317 83L193 234L317 385H353L227 234L353 83H317Z" />
<glyph unicode="&#xac;" horiz-adv-x="526" d="M75 369V395H451V369H75ZM423 388H451V184H423V388Z" />
<glyph unicode="&#xad;" horiz-adv-x="459" d="M80 237V267H379V237H80Z" />
<glyph unicode="&#xae;" horiz-adv-x="598" d="M300 266Q239 266 192 294T118 370T91 477Q91 536 117 583T190 658T298 686Q360 686 407 658T480 583T507 476Q507 417 481 370T408 294T300 266ZM298 286Q354 286 396 311T461 380T485 477Q485 530 462 573T396
641T298 666Q243 666 202 641T137 573T113 477Q113 423 136 380T202 312T298 286ZM235 473V497H308Q330 497 340 507T350 532Q350 546 341 557T308 568H235V591H307Q340 591 357 575T375 532Q375 506 358 490T307 473H235ZM230 368V591H254V368H230ZM371 368L281
478L307 480L399 368H371Z" />
<glyph unicode="&#xaf;" horiz-adv-x="390" d="M40 632H350V605H40V632Z" />
<glyph unicode="&#xb0;" horiz-adv-x="400" d="M200 391Q159 391 126 410T74 462T55 538Q55 581 74 614T126 666T200 686Q242 686 274 667T326 614T345 538Q345 496 326 463T275 410T200 391ZM201 416Q251 416 284 451T317 540Q317 593 285 627T201 661Q149 661
116 627T83 540Q83 486 116 451T201 416Z" />
<glyph unicode="&#xb1;" horiz-adv-x="526" d="M75 369V395H451V369H75ZM249 530H277V234H249V530ZM75 134V160H451V134H75Z" />
<glyph unicode="&#xb2;" horiz-adv-x="325" d="M48 352L174 483Q211 521 223 542T236 587Q236 619 216 637T162 656Q133 656 111 643T72 602L53 620Q73 650 100 665T163 681Q208 681 235 656T263 586Q263 557 250 533T197 469L85 354L48 352ZM48 335V352L69 359H272V335H48Z"
/>
<glyph unicode="&#xb3;" horiz-adv-x="326" d="M151 330Q117 330 91 343T47 380L65 399Q78 380 100 368T151 355Q189 355 213 377T238 437Q238 475 214 497T149 520Q142 520 134 519T115 516L124 530Q132 536 142 538T162 540Q206 540 236 511T266 437Q266 390
234 360T151 330ZM115 516V533L231 661L262 659L144 529L115 516ZM61 652V676H262V659L238 652H61Z" />
<glyph unicode="&#xb4;" horiz-adv-x="244" d="M53 537L40 550L177 704L204 677L53 537Z" />
<glyph unicode="&#xb5;" horiz-adv-x="589" d="M119 -180V460H150V-180H119ZM305 -10Q226 -10 178 40T129 172L150 184Q150 111 190 65T300 18Q369 18 415 62T462 185V460H493V185Q493 126 468 82T401 14T305 -10Z" />
<glyph unicode="&#xb6;" horiz-adv-x="668" d="M364 288H279Q222 288 177 312T105 379T78 482Q78 541 104 584T176 652T279 676H600V647H284Q235 647 196 627T134 570T111 482Q111 431 133 394T195 337T284 317H364V288ZM380 -100H348V676H380V-100ZM506 -100H474V676H506V-100Z"
/>
<glyph unicode="&#xb7;" horiz-adv-x="80" d="M40 314Q23 314 12 326T0 355Q0 372 11 383T40 395Q57 395 68 384T80 355Q80 339 69 327T40 314Z" />
<glyph unicode="&#xb8;" horiz-adv-x="260" d="M133 -206Q104 -206 75 -196T22 -166L48 -144Q64 -159 86 -167T133 -176Q172 -176 193 -162T215 -123Q215 -98 192 -85T124 -71H104L128 8H163L142 -61L128 -44Q187 -44 218 -65T250 -124Q250 -163 220 -184T133 -206Z" />
<glyph unicode="&#xb9;" horiz-adv-x="240" d="M119 335V676H145V335H119ZM45 652V676H140V652H45Z" />
<glyph unicode="&#xba;" horiz-adv-x="343" d="M172 392Q132 392 99 411T47 464T28 538Q28 579 47 611T99 663T172 682Q212 682 244 663T295 612T315 538Q315 497 296 464T244 411T172 392ZM172 417Q222 417 255 452T288 539Q288 589 255 623T172 657Q122 657
89 623T55 538Q55 486 88 452T172 417Z" />
<glyph unicode="&#xbb;" horiz-adv-x="405" d="M192 83L318 234L192 385H228L352 234L228 83H192ZM52 83L178 234L52 385H88L212 234L88 83H52Z" />
<glyph unicode="&#xbc;" horiz-adv-x="636" d="M255 295L270 285L89 -10L56 14L255 295ZM335 381L320 391L501 686L534 662L335 381ZM141 335V676H167V335H141ZM67 652V676H162V652H67ZM325 94L455 326H486L353 94H325ZM325 76V94L336 101H581V76H325ZM502 -15V215H528V-15H502Z"
/>
<glyph unicode="&#xbd;" horiz-adv-x="629" d="M255 295L270 285L89 -10L56 14L255 295ZM335 381L320 391L501 686L534 662L335 381ZM141 335V676H167V335H141ZM67 652V676H162V652H67ZM344 2L470 133Q507 171 519 192T532 237Q532 269 512 287T458 306Q429 306
407 293T368 252L349 270Q369 300 396 315T459 331Q504 331 531 306T559 236Q559 207 546 183T493 119L381 4L344 2ZM344 -15V2L365 9H568V-15H344Z" />
<glyph unicode="&#xbe;" horiz-adv-x="627" d="M289 295L304 285L123 -10L90 14L289 295ZM369 381L354 391L535 686L568 662L369 381ZM160 330Q126 330 100 343T56 380L74 399Q87 380 109 368T160 355Q198 355 222 377T247 437Q247 475 223 497T158 520Q151 520
143 519T124 516L133 530Q141 536 151 538T171 540Q215 540 245 511T275 437Q275 390 243 360T160 330ZM124 516V533L240 661L271 659L153 529L124 516ZM70 652V676H271V659L247 652H70ZM312 94L442 326H473L340 94H312ZM312 76V94L323 101H568V76H312ZM489 -15V215H515V-15H489Z"
/>
<glyph unicode="&#xbf;" horiz-adv-x="505" d="M256 -206Q201 -206 160 -182T95 -116T72 -23Q72 32 95 72T159 136T253 162L243 147L246 275H271L274 134L250 133Q186 130 146 89T105 -23Q105 -64 123 -98T176 -154T256 -175Q318 -175 357 -149T421 -85L444 -108Q418
-149 370 -177T256 -206ZM260 389Q243 389 232 401T220 430Q220 447 231 458T260 470Q277 470 288 459T300 430Q300 413 289 401T260 389Z" />
<glyph unicode="&#xc0;" horiz-adv-x="678" d="M50 0L325 676H355L628 0H593L332 648H347L84 0H50ZM165 223V252H514V223H165ZM378 753L227 893L254 920L391 766L378 753Z" />
<glyph unicode="&#xc1;" horiz-adv-x="678" d="M50 0L325 676H355L628 0H593L332 648H347L84 0H50ZM165 223V252H514V223H165ZM270 753L257 766L394 920L421 893L270 753Z" />
<glyph unicode="&#xc2;" horiz-adv-x="678" d="M50 0L325 676H355L628 0H593L332 648H347L84 0H50ZM165 223V252H514V223H165ZM200 753L187 766L324 920H354L491 766L478 753L329 891H349L200 753Z" />
<glyph unicode="&#xc3;" horiz-adv-x="678" d="M50 0L325 676H355L628 0H593L332 648H347L84 0H50ZM165 223V252H514V223H165ZM413 762Q383 762 362 773T319 794T271 805Q243 805 228 795T201 766L182 782Q196 804 216 818T271 832Q304 832 326 822T369 800T413
789Q436 789 450 799T477 828L496 812Q482 790 462 776T413 762Z" />
<glyph unicode="&#xc4;" horiz-adv-x="678" d="M50 0L325 676H355L628 0H593L332 648H347L84 0H50ZM165 223V252H514V223H165ZM253 761Q240 761 231 771T222 794Q222 808 231 817T253 826Q267 826 276 817T286 794Q286 781 277 771T253 761ZM423 761Q410 761 401
771T392 794Q392 808 401 817T423 826Q437 826 446 817T456 794Q456 781 447 771T423 761Z" />
<glyph unicode="&#xc5;" horiz-adv-x="678" d="M50 0L325 676H355L628 0H593L332 648H347L84 0H50ZM165 223V252H514V223H165ZM340 663Q310 663 287 676T250 713T237 765Q237 794 250 817T286 853T340 867Q369 867 391 854T427 817T440 765Q440 736 427 713T392
677T340 663ZM341 690Q370 690 391 711T412 765Q412 797 391 818T341 840Q307 840 287 819T266 765Q266 733 286 712T341 690Z" />
<glyph unicode="&#xc6;" horiz-adv-x="947" d="M50 0L325 676H505V647H346L84 0H50ZM180 273V301H513V273H180ZM516 0V29H893V0H516ZM498 0V676H530V0H498ZM510 333V361H863V333H510ZM516 647V676H887V647H516Z" />
<glyph unicode="&#xc7;" horiz-adv-x="703" d="M405 -10Q333 -10 271 16T163 91T92 202T66 339Q66 413 91 476T161 586T268 659T400 686Q473 686 536 658T645 580L622 557Q582 603 525 629T400 655Q336 655 282 631T186 564T123 464T100 339Q100 272 123 214T186
113T282 45T402 21Q470 21 528 47T627 120L650 97Q605 47 542 19T405 -10ZM378 -206Q349 -206 320 -196T267 -166L293 -144Q309 -159 331 -167T378 -176Q417 -176 438 -162T460 -123Q460 -98 437 -85T369 -71H349L373 8H408L387 -61L373 -44Q432 -44 463 -65T495
-124Q495 -163 465 -184T378 -206Z" />
<glyph unicode="&#xc8;" horiz-adv-x="588" d="M99 0V676H131V0H99ZM117 0V29H534V0H117ZM117 333V361H504V333H117ZM117 647V676H528V647H117ZM356 753L205 893L232 920L369 766L356 753Z" />
<glyph unicode="&#xc9;" horiz-adv-x="588" d="M99 0V676H131V0H99ZM117 0V29H534V0H117ZM117 333V361H504V333H117ZM117 647V676H528V647H117ZM248 753L235 766L372 920L399 893L248 753Z" />
<glyph unicode="&#xca;" horiz-adv-x="588" d="M99 0V676H131V0H99ZM117 0V29H534V0H117ZM117 333V361H504V333H117ZM117 647V676H528V647H117ZM178 753L165 766L302 920H332L469 766L456 753L307 891H327L178 753Z" />
<glyph unicode="&#xcb;" horiz-adv-x="588" d="M99 0V676H131V0H99ZM117 0V29H534V0H117ZM117 333V361H504V333H117ZM117 647V676H528V647H117ZM231 761Q218 761 209 771T200 794Q200 808 209 817T231 826Q245 826 254 817T264 794Q264 781 255 771T231 761ZM401
761Q388 761 379 771T370 794Q370 808 379 817T401 826Q415 826 424 817T434 794Q434 781 425 771T401 761Z" />
<glyph unicode="&#xcc;" horiz-adv-x="230" d="M99 0V676H131V0H99ZM154 753L3 893L30 920L167 766L154 753Z" />
<glyph unicode="&#xcd;" horiz-adv-x="230" d="M99 0V676H131V0H99ZM46 753L33 766L170 920L197 893L46 753Z" />
<glyph unicode="&#xce;" horiz-adv-x="230" d="M99 0V676H131V0H99ZM-24 753L-37 766L100 920H130L267 766L254 753L105 891H125L-24 753Z" />
<glyph unicode="&#xcf;" horiz-adv-x="230" d="M99 0V676H131V0H99ZM29 761Q16 761 7 771T-2 794Q-2 808 7 817T29 826Q43 826 52 817T62 794Q62 781 53 771T29 761ZM199 761Q186 761 177 771T168 794Q168 808 177 817T199 826Q213 826 222 817T232 794Q232 781
223 771T199 761Z" />
<glyph unicode="&#xd0;" horiz-adv-x="738" d="M14 362H356V334H14V362ZM110 0V30H331Q421 30 490 70T599 179T638 339Q638 428 599 497T491 606T331 646H114V676H331Q406 676 468 651T576 581T647 474T672 338Q672 265 647 203T577 96T469 25T333 0H110ZM99 0V676H131V0H99Z"
/>
<glyph unicode="&#xd1;" horiz-adv-x="689" d="M99 0V676H123L131 634V0H99ZM566 0L116 633L123 676L573 43L566 0ZM566 0L558 42V676H590V0H566ZM419 762Q389 762 368 773T325 794T277 805Q249 805 234 795T207 766L188 782Q202 804 222 818T277 832Q310 832
332 822T375 800T419 789Q442 789 456 799T483 828L502 812Q488 790 468 776T419 762Z" />
<glyph unicode="&#xd2;" horiz-adv-x="793" d="M398 -10Q327 -10 267 16T161 91T91 202T66 339Q66 413 90 476T160 586T265 659T396 686Q467 686 527 660T632 586T702 476T727 338Q727 265 703 202T633 91T529 17T398 -10ZM396 21Q481 21 548 63T654 177T693 339Q693
406 671 463T608 564T514 631T396 655Q311 655 244 614T139 501T100 339Q100 272 122 214T185 113T279 45T396 21ZM436 753L285 893L312 920L449 766L436 753Z" />
<glyph unicode="&#xd3;" horiz-adv-x="793" d="M398 -10Q327 -10 267 16T161 91T91 202T66 339Q66 413 90 476T160 586T265 659T396 686Q467 686 527 660T632 586T702 476T727 338Q727 265 703 202T633 91T529 17T398 -10ZM396 21Q481 21 548 63T654 177T693 339Q693
406 671 463T608 564T514 631T396 655Q311 655 244 614T139 501T100 339Q100 272 122 214T185 113T279 45T396 21ZM328 753L315 766L452 920L479 893L328 753Z" />
<glyph unicode="&#xd4;" horiz-adv-x="793" d="M398 -10Q327 -10 267 16T161 91T91 202T66 339Q66 413 90 476T160 586T265 659T396 686Q467 686 527 660T632 586T702 476T727 338Q727 265 703 202T633 91T529 17T398 -10ZM396 21Q481 21 548 63T654 177T693 339Q693
406 671 463T608 564T514 631T396 655Q311 655 244 614T139 501T100 339Q100 272 122 214T185 113T279 45T396 21ZM258 753L245 766L382 920H412L549 766L536 753L387 891H407L258 753Z" />
<glyph unicode="&#xd5;" horiz-adv-x="793" d="M398 -10Q327 -10 267 16T161 91T91 202T66 339Q66 413 90 476T160 586T265 659T396 686Q467 686 527 660T632 586T702 476T727 338Q727 265 703 202T633 91T529 17T398 -10ZM396 21Q481 21 548 63T654 177T693 339Q693
406 671 463T608 564T514 631T396 655Q311 655 244 614T139 501T100 339Q100 272 122 214T185 113T279 45T396 21ZM471 762Q441 762 420 773T377 794T329 805Q301 805 286 795T259 766L240 782Q254 804 274 818T329 832Q362 832 384 822T427 800T471 789Q494 789
508 799T535 828L554 812Q540 790 520 776T471 762Z" />
<glyph unicode="&#xd6;" horiz-adv-x="793" d="M398 -10Q327 -10 267 16T161 91T91 202T66 339Q66 413 90 476T160 586T265 659T396 686Q467 686 527 660T632 586T702 476T727 338Q727 265 703 202T633 91T529 17T398 -10ZM396 21Q481 21 548 63T654 177T693 339Q693
406 671 463T608 564T514 631T396 655Q311 655 244 614T139 501T100 339Q100 272 122 214T185 113T279 45T396 21ZM311 761Q298 761 289 771T280 794Q280 808 289 817T311 826Q325 826 334 817T344 794Q344 781 335 771T311 761ZM481 761Q468 761 459 771T450 794Q450
808 459 817T481 826Q495 826 504 817T514 794Q514 781 505 771T481 761Z" />
<glyph unicode="&#xd7;" horiz-adv-x="510" d="M97 154L77 174L413 510L433 490L97 154ZM406 161L84 483L104 503L426 181L406 161Z" />
<glyph unicode="&#xd8;" horiz-adv-x="793" d="M695 658L715 637L96 18L76 39L695 658ZM397 -10Q326 -10 266 16T160 91T90 202T65 339Q65 413 89 476T159 586T264 659T395 686Q466 686 526 660T631 586T701 476T726 338Q726 265 702 202T632 91T528 17T397 -10ZM395
21Q480 21 547 63T653 177T692 339Q692 406 670 463T607 564T513 631T395 655Q310 655 243 614T138 501T99 339Q99 272 121 214T184 113T278 45T395 21Z" />
<glyph unicode="&#xd9;" horiz-adv-x="662" d="M331 -10Q262 -10 208 21T122 106T90 228V676H122V234Q122 169 149 121T224 47T331 21Q391 21 438 47T512 121T540 233V676H572V227Q572 159 541 106T455 21T331 -10ZM370 753L219 893L246 920L383 766L370 753Z" />
<glyph unicode="&#xda;" horiz-adv-x="662" d="M331 -10Q262 -10 208 21T122 106T90 228V676H122V234Q122 169 149 121T224 47T331 21Q391 21 438 47T512 121T540 233V676H572V227Q572 159 541 106T455 21T331 -10ZM262 753L249 766L386 920L413 893L262 753Z" />
<glyph unicode="&#xdb;" horiz-adv-x="662" d="M331 -10Q262 -10 208 21T122 106T90 228V676H122V234Q122 169 149 121T224 47T331 21Q391 21 438 47T512 121T540 233V676H572V227Q572 159 541 106T455 21T331 -10ZM192 753L179 766L316 920H346L483 766L470 753L321
891H341L192 753Z" />
<glyph unicode="&#xdc;" horiz-adv-x="662" d="M331 -10Q262 -10 208 21T122 106T90 228V676H122V234Q122 169 149 121T224 47T331 21Q391 21 438 47T512 121T540 233V676H572V227Q572 159 541 106T455 21T331 -10ZM245 761Q232 761 223 771T214 794Q214 808 223
817T245 826Q259 826 268 817T278 794Q278 781 269 771T245 761ZM415 761Q402 761 393 771T384 794Q384 808 393 817T415 826Q429 826 438 817T448 794Q448 781 439 771T415 761Z" />
<glyph unicode="&#xdd;" horiz-adv-x="645" d="M321 288L48 676H87L328 333H318L562 676H598L323 288H321ZM307 0V321H339V0H307ZM254 753L241 766L378 920L405 893L254 753Z" />
<glyph unicode="&#xde;" horiz-adv-x="611" d="M115 153V182H345Q395 182 434 202T495 259T518 347Q518 398 496 435T434 492T345 512H115V541H350Q408 541 453 517T524 450T551 347Q551 288 525 245T453 177T350 153H115ZM99 0V676H131V0H99Z" />
<glyph unicode="&#xdf;" horiz-adv-x="558" d="M309 -10Q269 -10 230 5T162 49L184 70Q207 45 241 32T309 19Q365 19 402 42T459 104T478 190Q478 238 457 276T395 338T300 361H239V388H268Q314 388 346 409T395 465T413 538Q413 576 396 608T345 659T263 679Q196
679 154 638T112 528V0H80V528Q80 581 103 621T168 683T263 706Q321 706 361 684T423 623T445 538Q445 476 408 430T307 373L306 382Q368 382 414 358T485 290T510 190Q510 148 497 112T459 49T396 6T309 -10Z" />
<glyph unicode="&#xe0;" horiz-adv-x="589" d="M287 -10Q219 -10 166 21T81 107T50 229Q50 297 81 351T165 438T285 470Q338 470 380 451T451 395T491 309V152Q479 102 451 66T381 10T287 -10ZM291 19Q377 19 428 76T479 229Q479 293 456 340T389 414T289 441Q229
441 183 414T109 339T82 230Q82 169 109 122T183 47T291 19ZM478 0V123L487 237L478 348V460H509V0H478ZM323 537L172 677L199 704L336 550L323 537Z" />
<glyph unicode="&#xe1;" horiz-adv-x="589" d="M287 -10Q219 -10 166 21T81 107T50 229Q50 297 81 351T165 438T285 470Q338 470 380 451T451 395T491 309V152Q479 102 451 66T381 10T287 -10ZM291 19Q377 19 428 76T479 229Q479 293 456 340T389 414T289 441Q229
441 183 414T109 339T82 230Q82 169 109 122T183 47T291 19ZM478 0V123L487 237L478 348V460H509V0H478ZM215 537L202 550L339 704L366 677L215 537Z" />
<glyph unicode="&#xe2;" horiz-adv-x="589" d="M287 -10Q219 -10 166 21T81 107T50 229Q50 297 81 351T165 438T285 470Q338 470 380 451T451 395T491 309V152Q479 102 451 66T381 10T287 -10ZM291 19Q377 19 428 76T479 229Q479 293 456 340T389 414T289 441Q229
441 183 414T109 339T82 230Q82 169 109 122T183 47T291 19ZM478 0V123L487 237L478 348V460H509V0H478ZM145 537L132 550L269 704H299L436 550L423 537L274 675H294L145 537Z" />
<glyph unicode="&#xe3;" horiz-adv-x="589" d="M287 -10Q219 -10 166 21T81 107T50 229Q50 297 81 351T165 438T285 470Q338 470 380 451T451 395T491 309V152Q479 102 451 66T381 10T287 -10ZM291 19Q377 19 428 76T479 229Q479 293 456 340T389 414T289 441Q229
441 183 414T109 339T82 230Q82 169 109 122T183 47T291 19ZM478 0V123L487 237L478 348V460H509V0H478ZM358 546Q328 546 307 557T264 578T216 589Q188 589 173 579T146 550L127 566Q141 588 161 602T216 616Q249 616 271 606T314 584T358 573Q381 573 395 583T422
612L441 596Q427 574 407 560T358 546Z" />
<glyph unicode="&#xe4;" horiz-adv-x="589" d="M287 -10Q219 -10 166 21T81 107T50 229Q50 297 81 351T165 438T285 470Q338 470 380 451T451 395T491 309V152Q479 102 451 66T381 10T287 -10ZM291 19Q377 19 428 76T479 229Q479 293 456 340T389 414T289 441Q229
441 183 414T109 339T82 230Q82 169 109 122T183 47T291 19ZM478 0V123L487 237L478 348V460H509V0H478ZM198 545Q185 545 176 555T167 578Q167 592 176 601T198 610Q212 610 221 601T231 578Q231 565 222 555T198 545ZM368 545Q355 545 346 555T337 578Q337 592
346 601T368 610Q382 610 391 601T401 578Q401 565 392 555T368 545Z" />
<glyph unicode="&#xe5;" horiz-adv-x="589" d="M287 -10Q219 -10 166 21T81 107T50 229Q50 297 81 351T165 438T285 470Q338 470 380 451T451 395T491 309V152Q479 102 451 66T381 10T287 -10ZM291 19Q377 19 428 76T479 229Q479 293 456 340T389 414T289 441Q229
441 183 414T109 339T82 230Q82 169 109 122T183 47T291 19ZM478 0V123L487 237L478 348V460H509V0H478ZM285 517Q255 517 232 530T195 567T182 619Q182 648 195 671T231 707T285 721Q314 721 336 708T372 671T385 619Q385 590 372 567T337 531T285 517ZM286 544Q315
544 336 565T357 619Q357 651 336 672T286 694Q252 694 232 673T211 619Q211 587 231 566T286 544Z" />
<glyph unicode="&#xe6;" horiz-adv-x="968" d="M287 -10Q219 -10 166 21T81 107T50 229Q50 297 81 351T165 438T285 470Q338 470 380 451T451 395T491 309V152Q479 102 451 66T381 10T287 -10ZM291 19Q377 19 428 76T479 229Q479 293 456 340T389 414T289 441Q229
441 183 414T109 339T82 230Q82 169 109 122T183 47T291 19ZM478 0V123L487 237L478 348V460H508V0H478ZM717 -10Q648 -10 596 21T514 107T485 231Q485 282 501 325T547 401T618 452T711 470Q773 470 820 443T895 366T922 253Q922 249 922 241T919 219H498V248H899L890
241Q894 300 872 345T809 415T710 441Q650 441 605 415T534 342T508 233Q508 169 534 121T609 46T721 19Q769 19 809 37T878 91L899 70Q868 33 821 12T717 -10Z" />
<glyph unicode="&#xe7;" horiz-adv-x="495" d="M287 -10Q220 -10 167 22T82 109T50 232Q50 299 81 353T166 438T287 470Q337 470 380 452T455 400L434 379Q407 408 369 424T287 441Q229 441 183 414T109 339T82 232Q82 171 109 123T182 47T287 19Q332 19 370 35T437
82L458 61Q426 27 382 9T287 -10ZM253 -206Q224 -206 195 -196T142 -166L168 -144Q184 -159 206 -167T253 -176Q292 -176 313 -162T335 -123Q335 -98 312 -85T244 -71H224L248 8H283L262 -61L248 -44Q307 -44 338 -65T370 -124Q370 -163 340 -184T253 -206Z" />
<glyph unicode="&#xe8;" horiz-adv-x="542" d="M291 -10Q222 -10 168 21T82 107T50 231Q50 299 80 353T164 438T285 470Q347 470 394 443T469 366T496 253Q496 249 496 241T493 219H72V248H473L464 241Q468 300 446 345T383 415T284 441Q224 441 179 415T108 342T82
233Q82 169 108 121T183 46T295 19Q343 19 383 37T452 91L473 70Q442 33 395 12T291 -10ZM324 537L173 677L200 704L337 550L324 537Z" />
<glyph unicode="&#xe9;" horiz-adv-x="542" d="M291 -10Q222 -10 168 21T82 107T50 231Q50 299 80 353T164 438T285 470Q347 470 394 443T469 366T496 253Q496 249 496 241T493 219H72V248H473L464 241Q468 300 446 345T383 415T284 441Q224 441 179 415T108 342T82
233Q82 169 108 121T183 46T295 19Q343 19 383 37T452 91L473 70Q442 33 395 12T291 -10ZM216 537L203 550L340 704L367 677L216 537Z" />
<glyph unicode="&#xea;" horiz-adv-x="542" d="M291 -10Q222 -10 168 21T82 107T50 231Q50 299 80 353T164 438T285 470Q347 470 394 443T469 366T496 253Q496 249 496 241T493 219H72V248H473L464 241Q468 300 446 345T383 415T284 441Q224 441 179 415T108 342T82
233Q82 169 108 121T183 46T295 19Q343 19 383 37T452 91L473 70Q442 33 395 12T291 -10ZM146 537L133 550L270 704H300L437 550L424 537L275 675H295L146 537Z" />
<glyph unicode="&#xeb;" horiz-adv-x="542" d="M291 -10Q222 -10 168 21T82 107T50 231Q50 299 80 353T164 438T285 470Q347 470 394 443T469 366T496 253Q496 249 496 241T493 219H72V248H473L464 241Q468 300 446 345T383 415T284 441Q224 441 179 415T108 342T82
233Q82 169 108 121T183 46T295 19Q343 19 383 37T452 91L473 70Q442 33 395 12T291 -10ZM199 545Q186 545 177 555T168 578Q168 592 177 601T199 610Q213 610 222 601T232 578Q232 565 223 555T199 545ZM369 545Q356 545 347 555T338 578Q338 592 347 601T369
610Q383 610 392 601T402 578Q402 565 393 555T369 545Z" />
<glyph unicode="&#xec;" horiz-adv-x="192" d="M80 0V460H112V0H80ZM391 537L240 677L267 704L404 550L391 537Z" />
<glyph unicode="&#xed;" horiz-adv-x="192" d="M80 0V460H112V0H80ZM283 537L270 550L407 704L434 677L283 537Z" />
<glyph unicode="&#xee;" horiz-adv-x="192" d="M80 0V460H112V0H80ZM213 537L200 550L337 704H367L504 550L491 537L342 675H362L213 537Z" />
<glyph unicode="&#xef;" horiz-adv-x="192" d="M80 0V460H112V0H80ZM266 545Q253 545 244 555T235 578Q235 592 244 601T266 610Q280 610 289 601T299 578Q299 565 290 555T266 545ZM436 545Q423 545 414 555T405 578Q405 592 414 601T436 610Q450 610 459 601T469
578Q469 565 460 555T436 545Z" />
<glyph unicode="&#xf0;" horiz-adv-x="568" d="M285 -10Q222 -10 171 20T88 102T57 216Q57 278 87 329T168 411T280 442Q304 442 326 437T370 423T409 401L399 396L175 676H214L456 365Q511 295 511 215Q511 152 481 101T400 20T285 -10ZM284 17Q338 17 382 43T453
115T479 216Q479 272 453 317T383 388T284 415Q231 415 187 388T116 316T89 216Q89 162 115 117T186 45T284 17ZM127 508L118 532L402 637L411 613L127 508Z" />
<glyph unicode="&#xf1;" horiz-adv-x="537" d="M436 0V275Q436 350 393 396T278 442Q229 442 192 421T133 362T111 276L90 288Q90 340 115 381T184 446T283 470Q338 470 379 445T444 376T467 275V0H436ZM80 0V460H111V0H80ZM343 546Q313 546 292 557T249 578T201
589Q173 589 158 579T131 550L112 566Q126 588 146 602T201 616Q234 616 256 606T299 584T343 573Q366 573 380 583T407 612L426 596Q412 574 392 560T343 546Z" />
<glyph unicode="&#xf2;" horiz-adv-x="573" d="M287 -10Q220 -10 167 22T82 109T50 232Q50 299 81 353T166 438T287 470Q353 470 406 439T491 353T523 232Q523 163 492 109T407 22T287 -10ZM287 19Q345 19 391 47T464 123T491 233Q491 292 464 339T391 413T287
441Q229 441 183 414T109 339T82 232Q82 171 109 123T182 47T287 19ZM326 537L175 677L202 704L339 550L326 537Z" />
<glyph unicode="&#xf3;" horiz-adv-x="573" d="M287 -10Q220 -10 167 22T82 109T50 232Q50 299 81 353T166 438T287 470Q353 470 406 439T491 353T523 232Q523 163 492 109T407 22T287 -10ZM287 19Q345 19 391 47T464 123T491 233Q491 292 464 339T391 413T287
441Q229 441 183 414T109 339T82 232Q82 171 109 123T182 47T287 19ZM218 537L205 550L342 704L369 677L218 537Z" />
<glyph unicode="&#xf4;" horiz-adv-x="573" d="M287 -10Q220 -10 167 22T82 109T50 232Q50 299 81 353T166 438T287 470Q353 470 406 439T491 353T523 232Q523 163 492 109T407 22T287 -10ZM287 19Q345 19 391 47T464 123T491 233Q491 292 464 339T391 413T287
441Q229 441 183 414T109 339T82 232Q82 171 109 123T182 47T287 19ZM148 537L135 550L272 704H302L439 550L426 537L277 675H297L148 537Z" />
<glyph unicode="&#xf5;" horiz-adv-x="573" d="M287 -10Q220 -10 167 22T82 109T50 232Q50 299 81 353T166 438T287 470Q353 470 406 439T491 353T523 232Q523 163 492 109T407 22T287 -10ZM287 19Q345 19 391 47T464 123T491 233Q491 292 464 339T391 413T287
441Q229 441 183 414T109 339T82 232Q82 171 109 123T182 47T287 19ZM361 546Q331 546 310 557T267 578T219 589Q191 589 176 579T149 550L130 566Q144 588 164 602T219 616Q252 616 274 606T317 584T361 573Q384 573 398 583T425 612L444 596Q430 574 410 560T361
546Z" />
<glyph unicode="&#xf6;" horiz-adv-x="573" d="M287 -10Q220 -10 167 22T82 109T50 232Q50 299 81 353T166 438T287 470Q353 470 406 439T491 353T523 232Q523 163 492 109T407 22T287 -10ZM287 19Q345 19 391 47T464 123T491 233Q491 292 464 339T391 413T287
441Q229 441 183 414T109 339T82 232Q82 171 109 123T182 47T287 19ZM201 545Q188 545 179 555T170 578Q170 592 179 601T201 610Q215 610 224 601T234 578Q234 565 225 555T201 545ZM371 545Q358 545 349 555T340 578Q340 592 349 601T371 610Q385 610 394 601T404
578Q404 565 395 555T371 545Z" />
<glyph unicode="&#xf7;" horiz-adv-x="526" d="M75 319V345H451V319H75ZM263 134Q246 134 235 146T223 175Q223 192 234 203T263 215Q280 215 291 204T303 175Q303 159 292 147T263 134ZM263 449Q246 449 235 461T223 490Q223 507 234 518T263 530Q280 530 291
519T303 490Q303 474 292 462T263 449Z" />
<glyph unicode="&#xf8;" horiz-adv-x="573" d="M287 -10Q220 -10 167 22T82 109T50 232Q50 299 81 353T166 438T287 470Q353 470 406 439T491 353T523 232Q523 163 492 109T407 22T287 -10ZM287 19Q345 19 391 47T464 123T491 233Q491 292 464 339T391 413T287
441Q229 441 183 414T109 339T82 232Q82 171 109 123T182 47T287 19ZM64 -13L44 7L510 473L530 453L64 -13Z" />
<glyph unicode="&#xf9;" horiz-adv-x="512" d="M256 -10Q202 -10 160 15T93 86T69 192V460H100V193Q100 142 119 103T174 41T256 18Q326 18 369 67T412 193V460H443V192Q443 133 419 87T353 16T256 -10ZM295 537L144 677L171 704L308 550L295 537Z" />
<glyph unicode="&#xfa;" horiz-adv-x="512" d="M256 -10Q202 -10 160 15T93 86T69 192V460H100V193Q100 142 119 103T174 41T256 18Q326 18 369 67T412 193V460H443V192Q443 133 419 87T353 16T256 -10ZM187 537L174 550L311 704L338 677L187 537Z" />
<glyph unicode="&#xfb;" horiz-adv-x="512" d="M256 -10Q202 -10 160 15T93 86T69 192V460H100V193Q100 142 119 103T174 41T256 18Q326 18 369 67T412 193V460H443V192Q443 133 419 87T353 16T256 -10ZM117 537L104 550L241 704H271L408 550L395 537L246 675H266L117
537Z" />
<glyph unicode="&#xfc;" horiz-adv-x="512" d="M256 -10Q202 -10 160 15T93 86T69 192V460H100V193Q100 142 119 103T174 41T256 18Q326 18 369 67T412 193V460H443V192Q443 133 419 87T353 16T256 -10ZM170 545Q157 545 148 555T139 578Q139 592 148 601T170
610Q184 610 193 601T203 578Q203 565 194 555T170 545ZM340 545Q327 545 318 555T309 578Q309 592 318 601T340 610Q354 610 363 601T373 578Q373 565 364 555T340 545Z" />
<glyph unicode="&#xfd;" horiz-adv-x="502" d="M240 0L32 460H66L258 28H235L436 460H470L252 0H240ZM126 -196L236 30L252 0L159 -196H126ZM182 537L169 550L306 704L333 677L182 537Z" />
<glyph unicode="&#xfe;" horiz-adv-x="589" d="M309 -10Q257 -10 214 10T140 66T97 152V309Q109 360 140 396T215 451T309 470Q375 470 426 439T508 353T538 229Q538 161 509 107T427 22T309 -10ZM303 19Q363 19 409 46T481 121T507 230Q507 292 481 339T410 414T306
441Q248 441 204 414T135 340T110 229Q110 168 134 121T202 46T303 19ZM80 -196V696H111V348L101 237L111 123V-196H80Z" />
<glyph unicode="&#xff;" horiz-adv-x="502" d="M240 0L32 460H66L258 28H235L436 460H470L252 0H240ZM126 -196L236 30L252 0L159 -196H126ZM165 545Q152 545 143 555T134 578Q134 592 143 601T165 610Q179 610 188 601T198 578Q198 565 189 555T165 545ZM335
545Q322 545 313 555T304 578Q304 592 313 601T335 610Q349 610 358 601T368 578Q368 565 359 555T335 545Z" />
<glyph unicode="&#x2013;" horiz-adv-x="536" d="M80 239V265H456V239H80Z" />
<glyph unicode="&#x2014;" horiz-adv-x="825" d="M80 239V265H745V239H80Z" />
<glyph unicode="&#x2018;" horiz-adv-x="240" d="M156 693L110 598L96 596Q98 603 104 607T120 612Q135 612 146 602T158 574Q158 557 146 545T116 533Q100 533 88 545T76 574Q76 581 78 590T87 616L132 706L156 693Z" />
<glyph unicode="&#x2019;" horiz-adv-x="239" d="M84 526L130 621L144 623Q142 616 136 612T120 607Q105 607 94 618T82 645Q82 662 94 674T124 686Q140 686 152 674T164 645Q164 638 163 629T153 603L108 513L84 526Z" />
<glyph unicode="&#x201a;" horiz-adv-x="271" d="M100 -89L146 6L160 8Q158 1 152 -3T136 -8Q121 -8 110 3T98 30Q98 47 110 59T140 71Q156 71 168 59T180 30Q180 23 179 14T169 -12L124 -102L100 -89Z" />
<glyph unicode="&#x201c;" horiz-adv-x="364" d="M156 693L110 598L96 596Q98 603 104 607T120 612Q135 612 146 602T158 574Q158 557 146 545T116 533Q100 533 88 545T76 574Q76 581 78 590T87 616L132 706L156 693ZM280 693L234 598L220 596Q222 603 228 607T244
612Q259 612 270 602T282 574Q282 557 270 545T240 533Q224 533 212 545T200 574Q200 581 202 590T211 616L256 706L280 693Z" />
<glyph unicode="&#x201d;" horiz-adv-x="363" d="M208 526L254 621L268 623Q266 616 260 612T244 607Q229 607 218 618T206 645Q206 662 218 674T248 686Q264 686 276 674T288 645Q288 638 287 629T277 603L232 513L208 526ZM84 526L130 621L144 623Q142 616 136
612T120 607Q105 607 94 618T82 645Q82 662 94 674T124 686Q140 686 152 674T164 645Q164 638 163 629T153 603L108 513L84 526Z" />
<glyph unicode="&#x201e;" horiz-adv-x="395" d="M224 -89L270 6L284 8Q282 1 276 -3T260 -8Q245 -8 234 3T222 30Q222 47 234 59T264 71Q280 71 292 59T304 30Q304 23 303 14T293 -12L248 -102L224 -89ZM100 -89L146 6L160 8Q158 1 152 -3T136 -8Q121 -8 110
3T98 30Q98 47 110 59T140 71Q156 71 168 59T180 30Q180 23 179 14T169 -12L124 -102L100 -89Z" />
<glyph unicode="&#x2022;" horiz-adv-x="293" d="M147 281Q125 281 109 291T84 318T74 355Q74 375 83 391T109 418T147 428Q168 428 184 418T210 392T219 355Q219 335 210 318T185 291T147 281Z" />
<glyph unicode="&#x2039;" horiz-adv-x="265" d="M177 83L53 234L177 385H213L87 234L213 83H177Z" />
<glyph unicode="&#x203a;" horiz-adv-x="265" d="M52 83L178 234L52 385H88L212 234L88 83H52Z" />
</font>
</defs>
</svg>
